<?xml version="1.0" encoding="utf-8"?>
<!-- Generator: Adobe Illustrator 26.1.0, SVG Export Plug-In . SVG Version: 6.00 Build 0)  -->
<svg version="1.1" id="Vrstva_1" xmlns="http://www.w3.org/2000/svg" xmlns:xlink="http://www.w3.org/1999/xlink" x="0px" y="0px"
	 viewBox="0 0 512 512" style="enable-background:new 0 0 512 512;" xml:space="preserve">
<path d="M140.4,270.5c0.6-0.5,1.1-0.9,1.6-1.4c6-6,7.9-15.2,4.5-23.2L115,172.4c-4.2-9.4-15.4-14.6-24.2-12.3l-68.1,15.7
	c-4,1-7.5,2.9-10.3,5.7c-3.9,3.9-6.1,9.1-6.2,15C6.2,367,145,505.8,315.5,505.8c5.8,0,11.1-2.3,15-6.2c2.7-2.7,4.7-6.2,5.6-10.2
	l15.7-68.1c2.3-9.9-2.8-20.1-12.2-24.2l-73.3-31.4c-8-3.4-17.2-1.6-23.2,4.4c-0.5,0.5-1,1.1-1.5,1.7l-29.8,36.4
	C165,385.1,126.9,347,104,300.3L140.4,270.5z M91.4,306.4c24.3,49.4,64.8,90,114.3,114.2l10,4.9L253,380c2-2,5.1-2.6,7.7-1.4
	L334,410c3.1,1.3,4.9,4.8,4.1,8.1l-15.7,68.2c-0.3,1.3-1,2.5-1.9,3.4c-1.3,1.3-3.1,2-5,2c-78.7,0-152.8-30.7-208.6-86.6
	c-55.8-55.8-86.5-129.9-86.6-208.7c0-1.9,0.7-3.7,2-5c0.9-0.9,2.1-1.6,3.4-1.9l68.1-15.7c2.8-0.2,6.8,1,8.1,4.1l31.4,73.3
	c1.1,2.6-0.1,6.3-2.5,8.8c0,0,0,0,0,0l-44.5,36.4L91.4,306.4z M189.1,24.2c-3.8,0.6-6.4,4.2-5.8,8.1c0.6,3.8,4.3,6.4,8.1,5.8
	c78-12.7,157.9,13,213.8,68.8s81.6,135.8,68.8,213.8c-0.6,3.8,2,7.4,5.8,8.1c2.4,0.4,4.6-0.4,6.1-2c1-1,1.7-2.3,2-3.8
	c13.5-82.5-14.3-167.5-73.3-226.6S271.5,10.7,189.1,24.2z M194,109.1c-3.8,0.8-6.2,4.5-5.4,8.3c0.8,3.8,4.6,6.2,8.3,5.4
	c54-11.7,109.5,4.7,148.5,43.7S400.8,261,389.2,315c-0.8,3.8,1.6,7.5,5.4,8.3c2.4,0.5,4.8-0.3,6.4-1.9c0.9-0.9,1.6-2.1,1.9-3.5
	c12.7-58.7-5.1-119-48.1-162S252.7,96.4,194,109.1z M199.3,195.2c-3.6,1.4-5.4,5.4-4.1,9.1c1.3,3.6,5.4,5.5,9,4.1
	c28.2-10.5,60.3-3.5,81.6,17.8c21.3,21.3,28.3,53.4,17.8,81.6c-1.3,3.6,0.5,7.7,4.1,9c2.7,1,5,0.8,7.4-1.6c0.7-0.7,1.3-1.5,1.6-2.5
	c12.4-33.4,4.1-71.3-21.1-96.4S232.7,182.7,199.3,195.2z"/>
</svg>
