<?xml version="1.0" standalone="no"?>
<!DOCTYPE svg PUBLIC "-//W3C//DTD SVG 1.1//EN" "http://www.w3.org/Graphics/SVG/1.1/DTD/svg11.dtd" >
<svg xmlns="http://www.w3.org/2000/svg" xmlns:xlink="http://www.w3.org/1999/xlink" version="1.1">
<metadata></metadata>
<defs>
<font id="blacker_sans_displaythin" horiz-adv-x="948" >
<font-face units-per-em="2048" ascent="1638" descent="-410" />
<missing-glyph horiz-adv-x="500" />
<glyph horiz-adv-x="0" />
<glyph unicode="&#xd;" horiz-adv-x="409" />
<glyph unicode=" "  horiz-adv-x="500" />
<glyph unicode="&#x09;" horiz-adv-x="500" />
<glyph unicode="&#xa0;" horiz-adv-x="500" />
<glyph unicode="!" horiz-adv-x="278" d="M71 43q0 30 20 49t50 19q31 0 50 -19t19 -49t-19 -48.5t-50 -18.5q-30 0 -50 18.5t-20 48.5zM90 1439h98l-41 -1066h-17z" />
<glyph unicode="&#x22;" horiz-adv-x="499" d="M80 1439h111l-46 -326h-20zM302 1439h111l-46 -326h-20z" />
<glyph unicode="#" horiz-adv-x="1322" d="M90 459v17h271l95 483h-286v17h290l91 463h18l-91 -463h442l91 463h18l-91 -463h294v-17h-298l-95 -483h313v-17h-316l-91 -459h-18l91 459h-442l-91 -459h-18l91 459h-268zM379 476h442l95 483h-442z" />
<glyph unicode="$" horiz-adv-x="1025" d="M35 121l9 15q84 -57 212 -100t232 -43h2v722q-173 91 -276.5 190t-103.5 220q0 96 44.5 170t130 117t205.5 49v168h17v-167h20q117 0 215.5 -34t191.5 -97l-8 -16q-106 68 -200 99t-217 31h-2v-640l21 -11l34 -17q186 -92 289 -194.5t103 -238.5q0 -111 -56 -193 t-157 -126.5t-234 -48.5v-178h-17v178h-4q-111 0 -232.5 43t-218.5 102zM182 1150q0 -92 80 -173.5t228 -162.5v630q-84 -4 -154.5 -45.5t-112 -107.5t-41.5 -141zM507 -7q116 3 200 44t128 112.5t44 164.5q0 85 -49.5 155t-126.5 123.5t-185 108.5l-11 6v-714z" />
<glyph unicode="%" horiz-adv-x="1509" d="M90 1078q0 107 31.5 191.5t90 132t136.5 47.5q79 0 138 -47.5t91 -132t32 -191.5t-32 -191.5t-91 -132.5t-138 -48q-77 0 -135.5 47.5t-90.5 132t-32 192.5zM155 1078q0 -105 23.5 -187.5t67 -129t102.5 -46.5t103.5 46.5t68.5 129t24 187.5q0 104 -24 186.5t-68.5 129 t-103.5 46.5t-102.5 -46.5t-67 -128.5t-23.5 -187zM233 -19l1051 1498l14 -10l-1053 -1500zM900 365q0 107 31.5 191.5t90 132t136.5 47.5q79 0 138 -47.5t91 -132t32 -191.5t-32 -191.5t-91 -132.5t-138 -48q-77 0 -135.5 47.5t-90.5 132t-32 192.5zM965 365 q0 -105 23.5 -187.5t67 -129t102.5 -46.5t103.5 46.5t68.5 129t24 187.5q0 104 -24 186.5t-68.5 129t-103.5 46.5t-102.5 -46.5t-67 -128.5t-23.5 -187z" />
<glyph unicode="&#x26;" horiz-adv-x="1563" d="M98 339q0 139 90 247t253 193l-1 1q-3 5 -8 12t-11 16q-50 71 -82.5 124t-56.5 115.5t-27 126.5q0 97 43 162.5t109.5 96.5t138.5 31q106 0 173.5 -42t98 -105.5t30.5 -132.5q0 -72 -36 -134.5t-105.5 -121t-180.5 -127.5l45 -64q126 -177 214.5 -292t186.5 -211 q82 109 136.5 257.5t83.5 322.5h17q-30 -181 -85.5 -332t-137.5 -261q198 -190 358 -190q62 0 119.5 35.5t95.5 110.5l15 -7q-45 -90 -121.5 -142t-181.5 -52q-79 0 -161 44t-178 138q-170 -180 -418 -180q-121 0 -215.5 45.5t-147.5 127.5t-53 188zM183 352 q0 -104 40.5 -185t115.5 -126.5t176 -45.5q239 0 404 176q-93 93 -207 238.5t-262 356.5q-117 -75 -195 -184.5t-72 -229.5zM330 1216q0 -82 47 -178.5t140 -225.5q102 65 157.5 124.5t77.5 123t22 147.5q-3 69 -30.5 123.5t-78 85.5t-118.5 31q-56 0 -106 -30.5 t-80.5 -83.5t-30.5 -117z" />
<glyph unicode="'" horiz-adv-x="277" d="M80 1439h111l-46 -326h-20z" />
<glyph unicode="(" horiz-adv-x="498" d="M90 598q0 207 45 394.5t128 340t195 257.5l11 -14q-132 -161 -209 -419.5t-77 -558.5q0 -297 77 -553t209 -420l-11 -15q-173 166 -270.5 423t-97.5 565z" />
<glyph unicode=")" horiz-adv-x="498" d="M29 -375q132 164 209 420t77 553q0 300 -77 558.5t-209 419.5l11 14q112 -105 195 -257.5t128 -340t45 -394.5q0 -308 -97.5 -565t-270.5 -423z" />
<glyph unicode="*" horiz-adv-x="783" d="M90 1187l27 82l270 -127l-37 297h87l-38 -296l268 126l26 -82l-289 -58l202 -215l-73 -53l-139 260l-145 -260l-70 53l203 215z" />
<glyph unicode="+" horiz-adv-x="985" d="M105 695v17h379v384h17v-384h379v-17h-379v-382h-17v382h-379z" />
<glyph unicode="," horiz-adv-x="444" d="M129 -239q46 29 63.5 59t17.5 69q0 38 -20 74t-51 54l81 84q31 -16 48.5 -48t17.5 -68q0 -80 -41.5 -141.5t-107.5 -96.5z" />
<glyph unicode="-" horiz-adv-x="697" d="M102 547v17h494v-17h-494z" />
<glyph unicode="." horiz-adv-x="359" d="M110 43q0 30 20 49t50 19q31 0 50 -19t19 -49t-19 -48.5t-50 -18.5q-30 0 -50 18.5t-20 48.5z" />
<glyph unicode="/" horiz-adv-x="600" d="M41 -285l676 1868h18l-675 -1868h-19z" />
<glyph unicode="0" horiz-adv-x="1189" d="M90 719q0 216 61 384.5t174.5 263.5t266.5 95q154 0 269 -95t176.5 -263.5t61.5 -384.5q0 -215 -61.5 -384t-176.5 -264t-269 -95q-152 0 -266 95.5t-175 264t-61 383.5zM185 719q0 -208 50 -373t142.5 -259t214.5 -94q123 0 217 94t144.5 259t50.5 373q0 207 -51 372.5 t-144.5 259.5t-216.5 94t-215 -93.5t-142 -259t-50 -373.5z" />
<glyph unicode="1" horiz-adv-x="542" d="M60 1267l288 195h14v-1462h-86v1393l-208 -141z" />
<glyph unicode="2" horiz-adv-x="1073" d="M32 55q279 240 444.5 409t254.5 321.5t89 301.5q0 104 -39.5 185t-112 127t-167.5 46q-104 0 -205.5 -35t-185.5 -103l-9 14q183 141 401 141q132 0 225 -46.5t140.5 -130.5t47.5 -196q0 -146 -99 -296.5t-261.5 -303t-462.5 -404.5h858l-1 -85h-910z" />
<glyph unicode="3" horiz-adv-x="1103" d="M100 164l14 10q70 -85 185.5 -133t240.5 -48q119 0 201.5 47.5t123 127.5t40.5 179q0 134 -59.5 227t-165 139t-241.5 42v19q140 0 234.5 46.5t141 125t46.5 176.5q0 88 -33 161.5t-97 117.5t-153 44q-272 0 -401 -187l-13 10q53 82 158.5 138t255.5 56q114 0 199.5 -42 t132 -117t46.5 -171q0 -99 -63.5 -179.5t-164 -129.5t-207.5 -58q121 -1 231 -45t179 -132t69 -215q0 -115 -62.5 -205.5t-170.5 -141t-238 -50.5q-93 0 -181 28.5t-153.5 72.5t-94.5 87z" />
<glyph unicode="4" horiz-adv-x="1158" d="M30 415l700 1024h68v-1022h223v-17h-223v-400h-84v400h-680zM52 417h662v968z" />
<glyph unicode="5" horiz-adv-x="1089" d="M123 178l13 12q76 -98 173.5 -147.5t214.5 -49.5q383 0 383 416q0 127 -46 224t-142 153t-241 56q-66 0 -151.5 -22.5t-139.5 -64.5l-17 11l83 673h653v-86h-647l-70 -576q61 61 152 95t187 34q126 0 235 -56t175 -160.5t66 -242.5q0 -136 -63.5 -243t-174.5 -167.5 t-248 -60.5q-119 0 -221 54.5t-174 147.5z" />
<glyph unicode="6" horiz-adv-x="1162" d="M116 497q0 185 80.5 372.5t253 346t435.5 246.5l9 -14q-266 -112 -431.5 -289.5t-221.5 -418.5q41 51 109.5 93t148 66.5t152.5 24.5q111 0 207 -56t154 -157.5t58 -230.5q0 -147 -60 -261.5t-168.5 -178.5t-249.5 -64q-146 0 -253.5 64.5t-165 182.5t-57.5 274zM212 480 q0 -128 49 -240t136 -179.5t197 -67.5q102 0 189.5 59.5t139.5 164t52 232.5t-46 227t-130.5 154t-197.5 55q-73 0 -145 -23.5t-130.5 -66t-93.5 -96.5q-20 -106 -20 -219z" />
<glyph unicode="7" horiz-adv-x="989" d="M68 1353v86h888l9 -56l-63 -111q-145 -255 -238.5 -433.5t-181.5 -393t-146 -445.5h-96v20q47 186 128 366.5t178 346t264 430.5q34 53 63.5 101t55.5 89h-861z" />
<glyph unicode="8" horiz-adv-x="1151" d="M117 335q0 85 46 165t131 142t198 95q-162 75 -239 168t-77 208q0 106 47 184.5t137 121.5t217 43q123 0 211.5 -41.5t135.5 -116.5t47 -175q0 -73 -40 -143t-117 -127t-185 -91q192 -87 298.5 -187.5t106.5 -239.5q0 -180 -121.5 -272.5t-336.5 -92.5q-144 0 -247 44 t-157.5 125t-54.5 190zM199 330q0 -97 46.5 -173.5t132.5 -120t198 -43.5q114 0 201 34.5t136 104t49 173.5q0 91 -56 163.5t-151.5 131.5t-245.5 129q-101 -36 -171 -98t-104.5 -139.5t-34.5 -161.5zM251 1145q0 -83 36 -143.5t113 -112.5t216 -115q88 38 149.5 96.5 t93 127.5t31.5 139q0 87 -38.5 157.5t-109 110.5t-162.5 40q-96 0 -171 -39.5t-116.5 -108t-41.5 -152.5z" />
<glyph unicode="9" horiz-adv-x="1162" d="M93 958q0 147 60 261.5t168.5 178.5t249.5 64q146 0 253.5 -64.5t165 -182.5t57.5 -274q0 -185 -80.5 -372.5t-253 -346t-435.5 -246.5l-9 14q266 112 431.5 289.5t221.5 418.5q-41 -51 -109.5 -93t-148 -66.5t-152.5 -24.5q-111 0 -207 56t-154 157.5t-58 230.5z M188 989q0 -128 46 -227t130.5 -154t197.5 -55q73 0 145 23.5t130.5 66t93.5 96.5q20 106 20 219q0 128 -49 240t-136 179.5t-197 67.5q-102 0 -189.5 -59.5t-139.5 -164t-52 -232.5z" />
<glyph unicode=":" horiz-adv-x="359" d="M110 43q0 30 20 49t50 19q31 0 50 -19t19 -49t-19 -48.5t-50 -18.5q-30 0 -50 18.5t-20 48.5zM110 952q0 30 20 49t50 19q31 0 50 -19t19 -49t-19 -48.5t-50 -18.5q-30 0 -50 18.5t-20 48.5z" />
<glyph unicode=";" horiz-adv-x="463" d="M129 953q0 30 20 49t50 19q31 0 50 -19t19 -49t-19 -48.5t-50 -18.5q-30 0 -50 18.5t-20 48.5zM148 -239q46 29 63.5 59t17.5 69q0 38 -20 74t-51 54l81 84q31 -16 48.5 -48t17.5 -68q0 -80 -41.5 -141.5t-107.5 -96.5z" />
<glyph unicode="&#x3c;" horiz-adv-x="960" d="M96 695v20l766 390l7 -16l-756 -384l756 -384l-7 -16z" />
<glyph unicode="=" horiz-adv-x="1006" d="M102 546v17h803v-17h-803zM102 849v17h803v-17h-803z" />
<glyph unicode="&#x3e;" horiz-adv-x="960" d="M91 321l756 384l-756 384l7 16l766 -390v-20l-766 -390z" />
<glyph unicode="?" horiz-adv-x="820" d="M28 1311q92 75 178 113t196 38q125 0 213 -41t133 -111.5t45 -157.5q0 -104 -58 -210.5t-144 -204.5t-237 -251l-20 -20v-142l-17 1v216l58 59q109 111 177.5 190.5t118 174t49.5 188.5q0 84 -44 151t-115.5 104t-149.5 37q-85 0 -149 -18.5t-112.5 -48.5t-112.5 -81z M257 43q0 30 20 49t50 19q31 0 50 -19t19 -49t-19 -48.5t-50 -18.5q-30 0 -50 18.5t-20 48.5z" />
<glyph unicode="@" horiz-adv-x="1960" d="M90 479q0 263 120.5 488t335 358.5t484.5 133.5q241 0 432.5 -101t299.5 -281.5t108 -407.5q0 -165 -58 -307t-166 -227.5t-249 -85.5q-57 0 -103 31.5t-71.5 91t-22.5 139.5q-53 -136 -148 -216.5t-204 -80.5q-112 0 -188 49.5t-113 132t-37 182.5q0 184 71 340 t202.5 248.5t303.5 92.5q68 0 139 -36.5t106 -91.5l55 104h16l-120 -733q-6 -36 -6 -72q0 -73 31 -118.5t101 -45.5q122 0 207 80t127.5 215.5t42.5 299.5q0 220 -91 398t-260.5 280.5t-394.5 102.5q-253 0 -450.5 -130.5t-306.5 -348.5t-109 -472q0 -256 103.5 -445.5 t286 -291t413.5 -101.5q186 0 332.5 48t251.5 135l8 -18q-243 -182 -588 -182q-250 0 -453.5 105t-320.5 296.5t-117 441.5zM598 386q0 -100 32.5 -176.5t94 -119t144.5 -42.5q63 0 127.5 35t120.5 109t91 186l84 470q-6 58 -38.5 102.5t-80.5 68t-99 23.5q-135 0 -244 -97 t-170.5 -249.5t-61.5 -309.5z" />
<glyph unicode="A" horiz-adv-x="1131" d="M10 0l542 1439h27l542 -1439h-92l-171 455h-659l-171 -455h-18zM205 471h647l-323 861z" />
<glyph unicode="B" horiz-adv-x="1105" d="M180 0v1439h372q129 0 222 -40.5t142 -116.5t49 -181q0 -88 -42.5 -161.5t-120.5 -123.5t-181 -69q128 -8 220.5 -53.5t141.5 -123.5t49 -183q0 -188 -112.5 -287.5t-346.5 -99.5h-393zM266 17h297q193 0 283.5 98.5t90.5 271.5q0 170 -103 260t-291 90h-277v-720z M266 754h281q105 0 178 45t109.5 121t36.5 168q0 165 -87.5 249.5t-287.5 84.5h-230v-668z" />
<glyph unicode="C" horiz-adv-x="1297" d="M90 707q0 219 90 391t247.5 268t354.5 96q77 0 154.5 -21.5t140 -53.5t101.5 -65l-9 -14q-88 70 -183.5 102.5t-208.5 32.5q-184 0 -318 -94.5t-204 -259.5t-70 -373q0 -215 70.5 -378.5t199 -253.5t296.5 -90q151 0 272 63t193 175l16 -6q-164 -250 -502 -250 q-182 0 -327.5 87.5t-229 253t-83.5 390.5z" />
<glyph unicode="D" horiz-adv-x="1368" d="M180 0v1439h463q202 0 344.5 -85.5t216.5 -246.5t74 -386q0 -226 -74.5 -387.5t-221 -247.5t-356.5 -86h-446zM266 17h330q185 0 317 83.5t201 239t69 368.5q0 225 -69.5 386t-197.5 244.5t-301 83.5h-349v-1405z" />
<glyph unicode="E" horiz-adv-x="989" d="M180 0v1439h761l-1 -17h-674v-674h467v-17h-467v-714h688v-17h-774z" />
<glyph unicode="F" horiz-adv-x="931" d="M180 0v1439h759v-17h-673v-684h471v-17h-471v-721h-86z" />
<glyph unicode="G" horiz-adv-x="1347" d="M90 708q0 194 81 367t236 280t367 107q119 0 215.5 -36t188.5 -101l-11 -14q-94 67 -189 100.5t-205 33.5q-202 0 -334 -112t-193 -279t-61 -337q0 -213 66.5 -375.5t202.5 -254t338 -91.5q82 0 155.5 29.5t125.5 71.5t74 79v532l-456 1v17h542v-562q-86 -69 -155.5 -109 t-145.5 -59.5t-172 -19.5q-206 0 -357.5 92.5t-232 258.5t-80.5 381z" />
<glyph unicode="H" horiz-adv-x="1331" d="M180 0v1439h86v-695h799v695h86v-1439h-86v728h-799v-728h-86z" />
<glyph unicode="I" horiz-adv-x="446" d="M180 0v1439h86v-1439h-86z" />
<glyph unicode="J" horiz-adv-x="809" d="M16 69l8 16q74 -52 138.5 -72t145.5 -20q107 0 158 85t51 260v1101h86v-1146q0 -95 -38 -167t-108 -111t-162 -39q-80 0 -148.5 23t-130.5 70z" />
<glyph unicode="K" horiz-adv-x="1023" d="M180 0v1439h86v-1439h-86zM351 760l522 679h22l-481 -623l600 -816h-107z" />
<glyph unicode="L" horiz-adv-x="924" d="M180 0v1439h86v-1422h656v-17h-742z" />
<glyph unicode="M" horiz-adv-x="1579" d="M180 0v1439h79l518 -1118l38 -75l49 112l457 1081h78v-1439h-86v1380l-525 -1235h-22l-569 1220v-1365h-17z" />
<glyph unicode="N" horiz-adv-x="1362" d="M180 0v1439h32l953 -1337v1337h17v-1439l-37 -17l-948 1331v-1314h-17z" />
<glyph unicode="O" horiz-adv-x="1483" d="M90 704q0 217 80.5 389.5t228 270.5t342.5 98q196 0 343.5 -95t228 -264t80.5 -386q0 -215 -80.5 -383.5t-228 -263t-343.5 -94.5q-195 0 -342.5 93.5t-228 259t-80.5 375.5zM185 751q0 -134 43 -306.5t169 -312t354 -139.5q168 0 291.5 86.5t189.5 243t66 360.5 q0 135 -43.5 308.5t-170 313.5t-353.5 140q-164 0 -288 -87.5t-191 -245t-67 -361.5z" />
<glyph unicode="P" horiz-adv-x="1052" d="M180 0v1439h356q157 0 259.5 -53t151 -145t48.5 -213q0 -137 -65.5 -232.5t-177.5 -143t-251 -47.5h-51v17h62q197 0 292 107.5t95 298.5q0 127 -55 216t-147.5 133.5t-203.5 44.5h-227v-1422h-86z" />
<glyph unicode="Q" horiz-adv-x="1483" d="M90 704q0 217 80.5 389.5t228 270.5t342.5 98q196 0 343.5 -95t228 -264t80.5 -386q0 -206 -74 -369.5t-210.5 -260.5t-318.5 -109l528 -262l-10 -14l-544 274h-23q-195 0 -342.5 93.5t-228 259t-80.5 375.5zM185 751q0 -134 43 -306.5t169 -312t354 -139.5 q168 0 291.5 86.5t189.5 243t66 360.5q0 135 -43.5 308.5t-170 313.5t-353.5 140q-164 0 -288 -87.5t-191 -245t-67 -361.5z" />
<glyph unicode="R" horiz-adv-x="1134" d="M180 0v1439h410q202 0 303 -95t101 -261q0 -310 -300 -379l385 -704h-98l-374 689q-55 -6 -118 -6h-105l-1 17h123q212 0 303.5 96t91.5 281q0 100 -37 177.5t-116 122.5t-199 45h-283v-1422h-86z" />
<glyph unicode="S" horiz-adv-x="1025" d="M35 121l9 15q84 -57 212 -100t232 -43q122 0 210 40t134.5 112.5t46.5 168.5q0 85 -49.5 155t-126.5 123.5t-185 108.5q-185 94 -296.5 196t-111.5 228q0 101 49 177t143 118t225 42q117 0 215.5 -34t191.5 -97l-8 -16q-106 68 -200 99t-217 31q-88 0 -163.5 -40.5 t-119.5 -108.5t-44 -146q0 -103 99 -192.5t281 -180.5q186 -92 289 -194.5t103 -238.5q0 -114 -59 -197t-165 -127t-244 -44q-111 0 -232.5 43t-218.5 102z" />
<glyph unicode="T" horiz-adv-x="1037" d="M12 1422l1 17h1012v-17h-462v-1422h-86v1422h-465z" />
<glyph unicode="U" horiz-adv-x="1320" d="M176 463v976h86v-962q0 -158 55.5 -267t156.5 -163t235 -54q117 0 215 60t155 170t57 254v962h17v-946q0 -158 -58.5 -275t-165 -179.5t-246.5 -62.5q-164 0 -278 58t-171.5 167.5t-57.5 261.5z" />
<glyph unicode="V" horiz-adv-x="1109" d="M10 1439h91l456 -1199l51 -124l79 217l394 1106h18l-514 -1439h-28z" />
<glyph unicode="W" horiz-adv-x="1706" d="M10 1439h90l425 -1324l309 982v1l-6 18l-98 323h89l411 -1324l73 218l375 1106h18l-485 -1439h-30l-338 1069l-336 -1069h-30z" />
<glyph unicode="X" horiz-adv-x="1129" d="M39 0l488 721l-459 718h104l413 -647l482 647h21l-494 -662l496 -777h-102l-450 705l-63 -92l-415 -613h-21z" />
<glyph unicode="Y" horiz-adv-x="1044" d="M10 1439h99l390 -681l46 -79l80 131l390 629h19l-479 -775v-664h-86v637z" />
<glyph unicode="Z" horiz-adv-x="1131" d="M47 24l916 1398h-842v17h935q0 -7 1 -13t1 -12l-911 -1397h927v-17h-1023q0 6 -4 24z" />
<glyph unicode="[" horiz-adv-x="644" d="M180 -361v1906h378v-17h-292v-1872h292v-17h-378z" />
<glyph unicode="\" horiz-adv-x="600" d="M-135 1583h18l676 -1868h-19z" />
<glyph unicode="]" horiz-adv-x="644" d="M86 -344h292v1872h-292v17h378v-1906h-378v17z" />
<glyph unicode="^" horiz-adv-x="848" d="M69 923l344 596h17l348 -596l-14 -10l-342 587l-338 -586z" />
<glyph unicode="_" horiz-adv-x="952" d="M26 -154h900v-17h-900v17z" />
<glyph unicode="`" horiz-adv-x="1200" d="M341 1448l116 11l127 -274l-18 -7z" />
<glyph unicode="a" horiz-adv-x="919" d="M66 198q0 107 86 184t228 118.5t310 48.5v124q0 157 -57.5 243.5t-189.5 86.5q-88 0 -170.5 -35t-144.5 -88l-11 14q82 61 156 93.5t171 32.5q173 0 251.5 -91t78.5 -238v-691h-27l-39 141h-2q-84 -83 -180.5 -124t-210.5 -41q-65 0 -122 26.5t-92 77t-35 118.5zM156 225 q0 -63 28 -109t77.5 -70.5t110.5 -24.5q89 0 173.5 36.5t144.5 92.5v382q-233 -11 -383.5 -86t-150.5 -221z" />
<glyph unicode="b" horiz-adv-x="1065" d="M155 133v1364h84v-627q66 71 153.5 111t182.5 40q130 0 224.5 -63t145 -175t50.5 -258q0 -154 -56 -278.5t-166.5 -197.5t-268.5 -73q-114 4 -197 41.5t-152 115.5zM239 168q40 -87 112 -130t167 -43q110 0 197 63t136 177t49 260q0 148 -42 260t-126 174.5t-206 62.5 q-79 0 -156 -43.5t-131 -108.5v-672z" />
<glyph unicode="c" d="M70 467q0 166 64.5 290.5t179.5 192t263 67.5q91 0 176.5 -37.5t137.5 -103.5l-14 -10q-48 58 -132 96t-157 38q-221 0 -324.5 -127t-103.5 -350q0 -240 106 -376t313 -136q201 0 332 181l12 -12q-61 -94 -163.5 -149t-232.5 -55q-129 0 -233 61.5t-164 173t-60 256.5z " />
<glyph unicode="d" horiz-adv-x="1064" d="M70 465q0 161 62.5 285t178 192.5t270.5 68.5q128 0 244 -68v554h84v-1497h-27l-38 138q-71 -77 -162 -119.5t-192 -42.5q-129 0 -224 62.5t-145.5 173t-50.5 253.5zM167 503q0 -486 384 -486q70 0 144.5 34.5t129.5 95.5v679q-33 80 -103.5 124t-146.5 44 q-108 0 -201.5 -59t-150 -170.5t-56.5 -261.5z" />
<glyph unicode="e" horiz-adv-x="987" d="M70 468q0 161 59.5 286t164.5 194t235 69q121 0 208.5 -57t133.5 -157.5t46 -228.5h-755q-3 -30 -3 -59q0 -141 42.5 -253.5t129.5 -178.5t214 -66q89 0 155.5 27.5t111 68t91.5 99.5l13 -7q-68 -106 -172 -167.5t-242 -61.5q-125 0 -223 62.5t-153.5 174t-55.5 255.5z M164 591h658q0 115 -34.5 207t-101.5 145t-163 53q-92 0 -169 -55.5t-126.5 -148t-63.5 -201.5z" />
<glyph unicode="f" horiz-adv-x="573" d="M82 977v17h139q-55 71 -77 133t-22 124q0 70 37 131t106 98t161 37q57 0 113 -14t102 -38l-7 -16q-90 51 -216 51q-63 0 -110.5 -27.5t-74 -77t-26.5 -113.5q0 -65 21.5 -134.5t75.5 -153.5h243v-17h-243v-977h-84v977h-138z" />
<glyph unicode="g" horiz-adv-x="1002" d="M68 -141l262 160q-208 21 -208 153q0 60 46.5 102t129.5 84q-82 44 -128.5 125t-46.5 188q0 94 51 174.5t136.5 128t183.5 47.5q75 0 141 -24t116 -69l217 127l10 -14l-215 -125q49 -47 75.5 -110.5t26.5 -138.5q0 -101 -46 -181.5t-130.5 -126.5t-194.5 -46 q-97 0 -178 36q-63 -31 -101 -66t-38 -81q0 -50 58.5 -77.5t162.5 -27.5h278q83 0 154.5 -24.5t115.5 -75.5t44 -125q0 -90 -53.5 -156.5t-158 -103t-254.5 -36.5q-205 0 -316.5 78t-139.5 205zM86 -151q43 -136 153.5 -196t284.5 -60h19q111 0 199.5 28t139 81t50.5 127 q0 57 -38 99.5t-98 65t-122 22.5l-268 -1q-22 0 -56 2q-53 -39 -155 -100q-65 -38 -109 -68zM208 667q0 -96 31 -172t95.5 -120.5t159.5 -44.5q94 0 158 44t95.5 120t31.5 173q0 94 -33 170.5t-97.5 121.5t-154.5 45q-82 0 -147.5 -45.5t-102 -122.5t-36.5 -169z" />
<glyph unicode="h" horiz-adv-x="1080" d="M155 0v1497h84v-638q86 76 189.5 117.5t209.5 41.5q140 0 218.5 -82t78.5 -228v-708h-84v685q0 135 -66 208.5t-190 73.5q-91 0 -186.5 -34.5t-169.5 -95.5v-837h-84z" />
<glyph unicode="i" horiz-adv-x="394" d="M135 1303q0 26 17.5 43.5t43.5 17.5t44 -17.5t18 -43.5t-18 -43t-44 -17t-43.5 17t-17.5 43zM155 0v994h84v-994h-84z" />
<glyph unicode="j" horiz-adv-x="392" d="M-57 -405q35 0 78 20.5t78.5 49.5t49.5 51q0 37 2 109t2 109v1060h84v-910q0 -144 -16.5 -239.5t-79.5 -169t-193 -99.5zM133 1303q0 26 17.5 43.5t43.5 17.5t44 -17.5t18 -43.5t-18 -43t-44 -17t-43.5 17t-17.5 43z" />
<glyph unicode="k" horiz-adv-x="959" d="M155 0v1497h84v-1118l561 615h23l-334 -366l430 -618v-10h-102l-378 573l-200 -219v-354h-84z" />
<glyph unicode="l" horiz-adv-x="394" d="M155 0v1497h84v-1497h-84z" />
<glyph unicode="m" horiz-adv-x="1658" d="M155 772v222h27l39 -141h12q79 78 175.5 121t195.5 43q102 0 168.5 -52t90.5 -148q84 98 177.5 149t200.5 51q128 0 200 -82t72 -228v-707h-79v685q0 134 -61 208t-174 74q-189 0 -332 -168q9 -42 9 -92v-707h-79v685q0 134 -60.5 208t-173.5 74q-88 0 -172.5 -34.5 t-151.5 -96.5v-836h-79z" />
<glyph unicode="n" horiz-adv-x="1080" d="M155 0v994h27l39 -141h11q86 78 192 121t214 43q140 0 218.5 -81.5t78.5 -226.5v-709h-84v686q0 133 -66 206.5t-190 73.5q-97 0 -189.5 -34t-166.5 -96v-836h-84z" />
<glyph unicode="o" horiz-adv-x="1106" d="M70 498q0 146 63 264.5t173.5 186.5t246.5 68q141 0 251 -67.5t171 -186t61 -265.5t-63 -266.5t-173.5 -187.5t-246.5 -68q-141 0 -250.5 67t-171 186t-61.5 269zM162 504q0 -93 40 -213t130 -209t229 -89q64 0 152.5 40.5t159.5 152t71 306.5q0 92 -41.5 211.5 t-131.5 208t-227 88.5q-64 0 -152 -40.5t-159 -151.5t-71 -304z" />
<glyph unicode="p" horiz-adv-x="1076" d="M155 -416v1410h27l39 -141h6q68 81 160.5 122.5t187.5 41.5q132 0 229.5 -60.5t149.5 -171.5t52 -260q0 -153 -57 -277.5t-167.5 -198t-263.5 -73.5q-67 0 -143.5 22.5t-135.5 60.5v-475h-84zM239 161q43 -81 116.5 -124.5t151.5 -43.5q116 0 207.5 60t143.5 173.5 t52 268.5t-45.5 265.5t-132 168t-208.5 57.5q-75 0 -155.5 -45t-129.5 -107v-673z" />
<glyph unicode="q" horiz-adv-x="1066" d="M70 465q0 161 62.5 285t178 192.5t270.5 68.5q153 0 282 -93l21 76h27v-1410h-84v537q-69 -69 -155 -107t-182 -38q-129 0 -224 62.5t-145.5 173t-50.5 253.5zM167 503q0 -486 384 -486q71 0 146 35t130 98v671q-32 82 -103 127.5t-149 45.5q-108 0 -201.5 -59 t-150 -170.5t-56.5 -261.5z" />
<glyph unicode="r" horiz-adv-x="699" d="M155 0v994h27l39 -141h5q68 79 148 121.5t139 42.5q54 0 93 -14t64 -37l-7 -14q-27 23 -64.5 35.5t-78.5 12.5q-70 0 -144 -42t-137 -116v-842h-84z" />
<glyph unicode="s" horiz-adv-x="825" d="M81 99l10 14q84 -63 163.5 -91.5t164.5 -28.5q81 0 133.5 31t76.5 79.5t24 102.5q0 90 -57 153.5t-171 118.5l-22 11q-84 42 -144.5 80.5t-101.5 91t-41 115.5q0 77 40 132t113 84t169 29q146 0 270 -97l-8 -16q-49 42 -117.5 69t-155.5 27q-75 0 -128 -30.5t-79.5 -77.5 t-26.5 -98q0 -49 33 -89t84.5 -72.5t134.5 -74.5l24 -12q125 -62 193 -135.5t68 -175.5q0 -71 -35.5 -130.5t-107.5 -96t-176 -36.5q-74 0 -158.5 30.5t-171.5 92.5z" />
<glyph unicode="t" horiz-adv-x="701" d="M63 977v17h134l58 213l28 -8v-205h323v-17h-322v-776q0 -184 149 -184q44 0 77 10.5t57 26t59 43.5l9 -9q-45 -48 -106.5 -80t-138.5 -32q-91 0 -140.5 63t-49.5 180v758h-137z" />
<glyph unicode="u" horiz-adv-x="1079" d="M145 284v710h84v-687q0 -133 66 -206.5t190 -73.5q97 0 189 33.5t166 95.5v838h84v-994h-27l-39 141h-9q-86 -79 -192 -122t-215 -43q-140 0 -218.5 81.5t-78.5 226.5z" />
<glyph unicode="v" horiz-adv-x="889" d="M61 994h91l280 -765l41 -116l53 136l283 745h19l-378 -994h-23z" />
<glyph unicode="w" horiz-adv-x="1352" d="M61 994h90l249 -754l40 -131l50 131l196 493l-85 261h90l249 -754l37 -117l47 133l249 738h18l-336 -994h-25l-222 669l-13 39l-20 -49l-260 -659h-25z" />
<glyph unicode="x" horiz-adv-x="872" d="M40 994h114l277 -413l20 -31l71 99l259 344l23 1l-344 -460l372 -534h-104l-293 427l-29 46l-338 -473h-21l348 488z" />
<glyph unicode="y" horiz-adv-x="890" d="M61 994h91l283 -765l40 -115l48 129l288 751h18l-378 -994l-80 -193q-49 -118 -108.5 -190.5t-130.5 -111.5l-10 15q64 33 122 100t97 160l89 212l-3 8z" />
<glyph unicode="z" horiz-adv-x="848" d="M45 15l660 964h-570v15h664l3 -17l-659 -960h662v-17h-754z" />
<glyph unicode="{" horiz-adv-x="583" d="M64 590v18q66 0 120.5 19.5t87 58.5t32.5 94q0 60 -13.5 116.5t-41.5 140.5q-29 88 -43 146.5t-14 122.5q0 131 88 202t246 71v-19q-111 0 -175.5 -56.5t-64.5 -178.5q0 -59 10 -115t30 -138q22 -92 32 -149.5t8 -121.5q-3 -90 -66.5 -139t-155.5 -61q97 -15 158 -62.5 t64 -135.5q2 -66 -8.5 -126.5t-31.5 -143.5q-20 -80 -30 -137t-10 -118q0 -122 63.5 -178.5t176.5 -56.5v-19q-102 0 -178 35t-116 97.5t-40 142.5q0 47 13 102t41 147q28 93 43 156.5t15 119.5q0 81 -69 123.5t-171 42.5z" />
<glyph unicode="|" horiz-adv-x="377" d="M180 -323v1868h17v-1868h-17z" />
<glyph unicode="}" horiz-adv-x="583" d="M57 -357q113 0 176.5 56.5t63.5 178.5q0 61 -10 118t-30 137q-21 83 -31.5 143.5t-8.5 126.5q3 88 64 135.5t158 62.5q-92 12 -155.5 61t-66.5 139q-2 64 8 121.5t32 149.5q20 82 30 138t10 115q0 122 -64.5 178.5t-175.5 56.5v19q158 0 246 -71t88 -202 q0 -64 -14 -122.5t-43 -146.5q-28 -84 -41.5 -140.5t-13.5 -116.5q0 -55 32.5 -94t87 -58.5t120.5 -19.5v-18q-102 0 -171 -42.5t-69 -123.5q0 -56 15 -119.5t43 -156.5q28 -92 41 -147t13 -102q0 -80 -40 -142.5t-116 -97.5t-178 -35v19z" />
<glyph unicode="~" horiz-adv-x="983" d="M102 462q20 79 82 133t153 54q37 0 74 -13.5t96 -40.5q59 -28 98.5 -42t78.5 -14q65 0 111.5 31t67.5 89l19 -4q-19 -80 -80 -133.5t-153 -53.5q-41 0 -82 14t-100 42q-56 26 -93.5 39.5t-72.5 13.5q-66 0 -114 -30.5t-66 -88.5z" />
<glyph unicode="&#xa2;" d="M70 467q0 153 55 271t153.5 188.5t228.5 86.5v172h17v-170q34 2 53 2q91 0 176.5 -37.5t137.5 -103.5l-14 -10q-48 58 -132 96t-157 38q-34 0 -64 -3v-983q27 -3 55 -3q201 0 332 181l12 -12q-61 -94 -163.5 -149t-232.5 -55h-3v-214h-17v214q-124 5 -223.5 67.5 t-156.5 172.5t-57 251zM160 523q0 -218 87.5 -351t259.5 -156v979q-179 -23 -263 -146.5t-84 -325.5z" />
<glyph unicode="&#xa3;" horiz-adv-x="1132" d="M143 7q86 55 142.5 162.5t84 228.5t32.5 226h-231v17h232v21q0 46 -9.5 93t-26.5 112q-16 64 -24 102.5t-8 74.5q0 139 48.5 232t134.5 138.5t199 45.5q51 0 121.5 -21.5t137 -54t104.5 -63.5l-33 -113l-248 214q-49 20 -96 20q-147 0 -219.5 -92.5t-72.5 -240.5 q0 -41 9 -85.5t28 -117.5q23 -86 34.5 -144.5t11.5 -119.5v-1h345v-17h-345q-4 -100 -41.5 -213.5t-102.5 -214t-146 -160.5q170 83 315 83q51 0 93.5 -4.5t102.5 -12.5q49 -8 83.5 -11.5t70.5 -3.5q83 0 143 38.5t128 120.5l24 -9l-200 -247q-52 0 -112 10.5t-148 29.5 q-81 18 -136 27.5t-100 9.5q-63 0 -108 -4.5t-97 -20.5t-113 -50z" />
<glyph unicode="&#xa5;" horiz-adv-x="1044" d="M10 1439h99l390 -681l46 -79l80 131l390 629h19l-479 -775v-183h410v-17h-410v-193h410v-17h-410v-254h-86v254h-413v17h413v193h-413v17h413v156z" />
<glyph unicode="&#xa8;" horiz-adv-x="1200" d="M252 1359q0 29 20 49t49 20q30 0 49.5 -20t19.5 -49t-19.5 -48t-49.5 -19q-29 0 -49 19t-20 48zM577 1359q0 29 20 49t49 20q30 0 49.5 -20t19.5 -49t-19.5 -48t-49.5 -19q-29 0 -49 19t-20 48z" />
<glyph unicode="&#xa9;" horiz-adv-x="1713" d="M90 719q0 212 99 381.5t273.5 265.5t391.5 96q218 0 393.5 -96t275.5 -265.5t100 -381.5t-100 -381.5t-275 -265.5t-393 -96t-392.5 96t-273.5 265.5t-99 381.5zM153 719q0 -195 89.5 -353.5t248 -249.5t355.5 -91q201 0 363.5 88.5t255.5 246t93 355.5t-89.5 357.5 t-248 251t-356.5 91.5q-203 0 -365 -89.5t-254 -248t-92 -358.5zM420 679q0 144 56.5 252.5t156.5 167t228 58.5q79 0 153.5 -32.5t120.5 -89.5l-13 -9q-41 50 -114.5 83.5t-136.5 33.5q-193 0 -283 -110.5t-90 -305.5q0 -209 92.5 -327t272.5 -118q175 0 289 157l10 -10 q-52 -83 -141.5 -130.5t-202.5 -47.5q-112 0 -203 53.5t-143 151t-52 223.5z" />
<glyph unicode="&#xab;" horiz-adv-x="894" d="M96 498v28l335 353l11 -10l-255 -356l255 -356l-11 -9zM457 498v28l335 353l11 -10l-255 -356l255 -356l-11 -9z" />
<glyph unicode="&#xad;" horiz-adv-x="697" d="M102 547v17h494v-17h-494z" />
<glyph unicode="&#xae;" horiz-adv-x="1083" d="M74 1090q0 125 62 231t167.5 168t230.5 62t231 -62t168 -168t62 -231t-62 -230.5t-168 -167.5t-231 -62t-230.5 62t-167.5 167.5t-62 230.5zM113 1090q0 -114 56.5 -211t153.5 -153.5t211 -56.5t211 57t154 153.5t57 210.5t-57 211t-154 154t-211 57t-210.5 -57 t-153.5 -154t-57 -211zM385 885v432h154q78 0 119.5 -29.5t41.5 -79.5q0 -49 -34 -79t-86 -43q21 -7 34 -7l105 -166l10 -18l1 -10h-97l-99 194h-39l-6 29h31q90 0 90 98q0 44 -21.5 62t-74.5 18h-45v-401h-84z" />
<glyph unicode="&#xb4;" horiz-adv-x="1200" d="M275 1185l127 274l116 -11l-225 -270z" />
<glyph unicode="&#xb8;" horiz-adv-x="1200" d="M252 -440q85 19 123.5 56.5t38.5 112.5q0 53 -34.5 82t-83.5 41l-4 14l93 134h19l-69 -101q46 -7 83.5 -30t58.5 -56t21 -70q0 -78 -63.5 -130t-178.5 -67z" />
<glyph unicode="&#xbb;" horiz-adv-x="894" d="M91 157l255 356l-255 356l11 10l335 -353v-28l-335 -350zM452 157l255 356l-255 356l11 10l335 -353v-28l-335 -350z" />
<glyph unicode="&#xc1;" horiz-adv-x="1131" d="M10 0l542 1439h27l542 -1439h-92l-171 455h-659l-171 -455h-18zM205 471h647l-323 861zM546 1527l138 219l127 -9l-246 -216z" />
<glyph unicode="&#xc9;" horiz-adv-x="989" d="M180 0v1439h761l-1 -17h-674v-674h467v-17h-467v-714h688v-17h-774zM547 1527l138 219l127 -9l-246 -216z" />
<glyph unicode="&#xcd;" horiz-adv-x="446" d="M180 0v1439h86v-1439h-86zM206 1527l138 219l127 -9l-246 -216z" />
<glyph unicode="&#xd3;" horiz-adv-x="1483" d="M90 704q0 217 80.5 389.5t228 270.5t342.5 98q196 0 343.5 -95t228 -264t80.5 -386q0 -215 -80.5 -383.5t-228 -263t-343.5 -94.5q-195 0 -342.5 93.5t-228 259t-80.5 375.5zM185 751q0 -134 43 -306.5t169 -312t354 -139.5q168 0 291.5 86.5t189.5 243t66 360.5 q0 135 -43.5 308.5t-170 313.5t-353.5 140q-164 0 -288 -87.5t-191 -245t-67 -361.5zM714 1527l138 219l127 -9l-246 -216z" />
<glyph unicode="&#xda;" horiz-adv-x="1320" d="M176 463v976h86v-962q0 -158 55.5 -267t156.5 -163t235 -54q117 0 215 60t155 170t57 254v962h17v-946q0 -158 -58.5 -275t-165 -179.5t-246.5 -62.5q-164 0 -278 58t-171.5 167.5t-57.5 261.5zM659 1527l138 219l127 -9l-246 -216z" />
<glyph unicode="&#xdd;" horiz-adv-x="1044" d="M10 1439h99l390 -681l46 -79l80 131l390 629h19l-479 -775v-664h-86v637zM513 1527l138 219l127 -9l-246 -216z" />
<glyph unicode="&#xe1;" horiz-adv-x="919" d="M66 198q0 107 86 184t228 118.5t310 48.5v124q0 157 -57.5 243.5t-189.5 86.5q-88 0 -170.5 -35t-144.5 -88l-11 14q82 61 156 93.5t171 32.5q173 0 251.5 -91t78.5 -238v-691h-27l-39 141h-2q-84 -83 -180.5 -124t-210.5 -41q-65 0 -122 26.5t-92 77t-35 118.5zM156 225 q0 -63 28 -109t77.5 -70.5t110.5 -24.5q89 0 173.5 36.5t144.5 92.5v382q-233 -11 -383.5 -86t-150.5 -221zM406 1185l127 274l116 -11l-225 -270z" />
<glyph unicode="&#xe9;" horiz-adv-x="987" d="M70 468q0 161 59.5 286t164.5 194t235 69q121 0 208.5 -57t133.5 -157.5t46 -228.5h-755q-3 -30 -3 -59q0 -141 42.5 -253.5t129.5 -178.5t214 -66q89 0 155.5 27.5t111 68t91.5 99.5l13 -7q-68 -106 -172 -167.5t-242 -61.5q-125 0 -223 62.5t-153.5 174t-55.5 255.5z M164 591h658q0 115 -34.5 207t-101.5 145t-163 53q-92 0 -169 -55.5t-126.5 -148t-63.5 -201.5zM480 1185l127 274l116 -11l-225 -270z" />
<glyph unicode="&#xed;" horiz-adv-x="394" d="M155 0v994h84v-994h-84zM157 1185l127 274l116 -11l-225 -270z" />
<glyph unicode="&#xf3;" horiz-adv-x="1106" d="M70 498q0 146 63 264.5t173.5 186.5t246.5 68q141 0 251 -67.5t171 -186t61 -265.5t-63 -266.5t-173.5 -187.5t-246.5 -68q-141 0 -250.5 67t-171 186t-61.5 269zM162 504q0 -93 40 -213t130 -209t229 -89q64 0 152.5 40.5t159.5 152t71 306.5q0 92 -41.5 211.5 t-131.5 208t-227 88.5q-64 0 -152 -40.5t-159 -151.5t-71 -304zM514 1185l127 274l116 -11l-225 -270z" />
<glyph unicode="&#xfa;" horiz-adv-x="1079" d="M145 284v710h84v-687q0 -133 66 -206.5t190 -73.5q97 0 189 33.5t166 95.5v838h84v-994h-27l-39 141h-9q-86 -79 -192 -122t-215 -43q-140 0 -218.5 81.5t-78.5 226.5zM495 1185l127 274l116 -11l-225 -270z" />
<glyph unicode="&#xfd;" horiz-adv-x="890" d="M61 994h91l283 -765l40 -115l48 129l288 751h18l-378 -994l-80 -193q-49 -118 -108.5 -190.5t-130.5 -111.5l-10 15q64 33 122 100t97 160l89 212l-3 8zM417 1185l127 274l116 -11l-225 -270z" />
<glyph unicode="&#x10c;" horiz-adv-x="1297" d="M90 707q0 219 90 391t247.5 268t354.5 96q77 0 154.5 -21.5t140 -53.5t101.5 -65l-9 -14q-88 70 -183.5 102.5t-208.5 32.5q-184 0 -318 -94.5t-204 -259.5t-70 -373q0 -215 70.5 -378.5t199 -253.5t296.5 -90q151 0 272 63t193 175l16 -6q-164 -250 -502 -250 q-182 0 -327.5 87.5t-229 253t-83.5 390.5zM405 1732l14 6l308 -147l308 146l16 -5l-312 -209h-22z" />
<glyph unicode="&#x10d;" d="M70 467q0 166 64.5 290.5t179.5 192t263 67.5q91 0 176.5 -37.5t137.5 -103.5l-14 -10q-48 58 -132 96t-157 38q-221 0 -324.5 -127t-103.5 -350q0 -240 106 -376t313 -136q201 0 332 181l12 -12q-61 -94 -163.5 -149t-232.5 -55q-129 0 -233 61.5t-164 173t-60 256.5z M287 1444l12 8l270 -201l270 200l14 -7l-273 -286h-20z" />
<glyph unicode="&#x10e;" horiz-adv-x="1368" d="M180 0v1439h463q202 0 344.5 -85.5t216.5 -246.5t74 -386q0 -226 -74.5 -387.5t-221 -247.5t-356.5 -86h-446zM266 17h330q185 0 317 83.5t201 239t69 368.5q0 225 -69.5 386t-197.5 244.5t-301 83.5h-349v-1405zM341 1732l14 6l308 -147l308 146l16 -5l-312 -209h-22z " />
<glyph unicode="&#x10f;" horiz-adv-x="1064" d="M70 465q0 161 62.5 285t178 192.5t270.5 68.5q128 0 244 -68v554h84v-1497h-27l-38 138q-71 -77 -162 -119.5t-192 -42.5q-129 0 -224 62.5t-145.5 173t-50.5 253.5zM167 503q0 -486 384 -486q70 0 144.5 34.5t129.5 95.5v679q-33 80 -103.5 124t-146.5 44 q-108 0 -201.5 -59t-150 -170.5t-56.5 -261.5zM1037 1497h93l-40 -331h-19z" />
<glyph unicode="&#x11a;" horiz-adv-x="989" d="M180 0v1439h761l-1 -17h-674v-674h467v-17h-467v-714h688v-17h-774zM250 1732l14 6l308 -147l308 146l16 -5l-312 -209h-22z" />
<glyph unicode="&#x11b;" horiz-adv-x="987" d="M70 468q0 161 59.5 286t164.5 194t235 69q121 0 208.5 -57t133.5 -157.5t46 -228.5h-755q-3 -30 -3 -59q0 -141 42.5 -253.5t129.5 -178.5t214 -66q89 0 155.5 27.5t111 68t91.5 99.5l13 -7q-68 -106 -172 -167.5t-242 -61.5q-125 0 -223 62.5t-153.5 174t-55.5 255.5z M164 591h658q0 115 -34.5 207t-101.5 145t-163 53q-92 0 -169 -55.5t-126.5 -148t-63.5 -201.5zM245 1444l12 8l270 -201l270 200l14 -7l-273 -286h-20z" />
<glyph unicode="&#x147;" horiz-adv-x="1362" d="M180 0v1439h32l953 -1337v1337h17v-1439l-37 -17l-948 1331v-1314h-17zM398 1732l14 6l308 -147l308 146l16 -5l-312 -209h-22z" />
<glyph unicode="&#x148;" horiz-adv-x="1080" d="M155 0v994h27l39 -141h11q86 78 192 121t214 43q140 0 218.5 -81.5t78.5 -226.5v-709h-84v686q0 133 -66 206.5t-190 73.5q-97 0 -189.5 -34t-166.5 -96v-836h-84zM252 1444l12 8l270 -201l270 200l14 -7l-273 -286h-20z" />
<glyph unicode="&#x158;" horiz-adv-x="1134" d="M180 0v1439h410q202 0 303 -95t101 -261q0 -310 -300 -379l385 -704h-98l-374 689q-55 -6 -118 -6h-105l-1 17h123q212 0 303.5 96t91.5 281q0 100 -37 177.5t-116 122.5t-199 45h-283v-1422h-86zM202 1732l14 6l308 -147l308 146l16 -5l-312 -209h-22z" />
<glyph unicode="&#x159;" horiz-adv-x="699" d="M84 1444l12 8l270 -201l270 200l14 -7l-273 -286h-20zM155 0v994h27l39 -141h5q68 79 148 121.5t139 42.5q54 0 93 -14t64 -37l-7 -14q-27 23 -64.5 35.5t-78.5 12.5q-70 0 -144 -42t-137 -116v-842h-84z" />
<glyph unicode="&#x160;" horiz-adv-x="1025" d="M35 121l9 15q84 -57 212 -100t232 -43q122 0 210 40t134.5 112.5t46.5 168.5q0 85 -49.5 155t-126.5 123.5t-185 108.5q-185 94 -296.5 196t-111.5 228q0 101 49 177t143 118t225 42q117 0 215.5 -34t191.5 -97l-8 -16q-106 68 -200 99t-217 31q-88 0 -163.5 -40.5 t-119.5 -108.5t-44 -146q0 -103 99 -192.5t281 -180.5q186 -92 289 -194.5t103 -238.5q0 -114 -59 -197t-165 -127t-244 -44q-111 0 -232.5 43t-218.5 102zM211 1732l14 6l308 -147l308 146l16 -5l-312 -209h-22z" />
<glyph unicode="&#x161;" horiz-adv-x="825" d="M81 99l10 14q84 -63 163.5 -91.5t164.5 -28.5q81 0 133.5 31t76.5 79.5t24 102.5q0 90 -57 153.5t-171 118.5l-22 11q-84 42 -144.5 80.5t-101.5 91t-41 115.5q0 77 40 132t113 84t169 29q146 0 270 -97l-8 -16q-49 42 -117.5 69t-155.5 27q-75 0 -128 -30.5t-79.5 -77.5 t-26.5 -98q0 -49 33 -89t84.5 -72.5t134.5 -74.5l24 -12q125 -62 193 -135.5t68 -175.5q0 -71 -35.5 -130.5t-107.5 -96t-176 -36.5q-74 0 -158.5 30.5t-171.5 92.5zM133 1444l12 8l270 -201l270 200l14 -7l-273 -286h-20z" />
<glyph unicode="&#x164;" horiz-adv-x="1037" d="M12 1422l1 17h1012v-17h-462v-1422h-86v1422h-465zM205 1732l14 6l308 -147l308 146l16 -5l-312 -209h-22z" />
<glyph unicode="&#x165;" horiz-adv-x="701" d="M63 977v17h134l58 213l28 -8v-205h323v-17h-322v-776q0 -184 149 -184q44 0 77 10.5t57 26t59 43.5l9 -9q-45 -48 -106.5 -80t-138.5 -32q-91 0 -140.5 63t-49.5 180v758h-137zM530 1502h93l-40 -331h-19z" />
<glyph unicode="&#x16e;" horiz-adv-x="1320" d="M176 463v976h86v-962q0 -158 55.5 -267t156.5 -163t235 -54q117 0 215 60t155 170t57 254v962h17v-946q0 -158 -58.5 -275t-165 -179.5t-246.5 -62.5q-164 0 -278 58t-171.5 167.5t-57.5 261.5zM481 1635q0 38 25 67.5t70 46t103 16.5q85 0 138.5 -36t53.5 -94 q0 -59 -53.5 -95t-138.5 -36q-88 0 -143 36t-55 95zM551 1635q0 -50 36.5 -85t91.5 -35q52 0 87.5 35t35.5 85t-34 84.5t-89 34.5q-56 0 -92 -35t-36 -84z" />
<glyph unicode="&#x16f;" horiz-adv-x="1079" d="M145 284v710h84v-687q0 -133 66 -206.5t190 -73.5q97 0 189 33.5t166 95.5v838h84v-994h-27l-39 141h-9q-86 -79 -192 -122t-215 -43q-140 0 -218.5 81.5t-78.5 226.5zM376 1303q0 66 45 107.5t116 41.5q69 0 112.5 -41.5t43.5 -107.5t-43.5 -107.5t-112.5 -41.5 q-71 0 -116 41t-45 108zM433 1303q0 -57 29.5 -96.5t74.5 -39.5q42 0 71 39.5t29 96.5t-28 96.5t-72 39.5q-45 0 -74.5 -40t-29.5 -96z" />
<glyph unicode="&#x17d;" horiz-adv-x="1131" d="M47 24l916 1398h-842v17h935q0 -7 1 -13t1 -12l-911 -1397h927v-17h-1023q0 6 -4 24zM293 1732l14 6l308 -147l308 146l16 -5l-312 -209h-22z" />
<glyph unicode="&#x17e;" horiz-adv-x="848" d="M45 15l660 964h-570v15h664l3 -17l-659 -960h662v-17h-754zM163 1444l12 8l270 -201l270 200l14 -7l-273 -286h-20z" />
<glyph unicode="&#x2c6;" horiz-adv-x="1200" d="M149 1166l273 286h20l273 -286l-12 -8l-270 201l-270 -200z" />
<glyph unicode="&#x2da;" horiz-adv-x="623" d="M153 1303q0 66 45 107.5t116 41.5q69 0 112.5 -41.5t43.5 -107.5t-43.5 -107.5t-112.5 -41.5q-71 0 -116 41t-45 108zM210 1303q0 -57 29.5 -96.5t74.5 -39.5q42 0 71 39.5t29 96.5t-28 96.5t-72 39.5q-45 0 -74.5 -40t-29.5 -96z" />
<glyph unicode="&#x2dc;" horiz-adv-x="1200" d="M168 1223q16 79 65.5 133t122.5 54q29 0 59.5 -13.5t76.5 -40.5q46 -28 78.5 -42t63.5 -14q52 0 89.5 31t53.5 89l15 -4q-15 -80 -63.5 -133.5t-122.5 -53.5q-32 0 -65 14t-80 42q-45 26 -75 39.5t-59 13.5q-52 0 -90.5 -30.5t-53.5 -88.5z" />
<glyph unicode="&#x400;" horiz-adv-x="989" d="M180 0v1439h761l-1 -17h-674v-674h467v-17h-467v-714h688v-17h-774zM323 1737l127 9l138 -219l-19 -6z" />
<glyph unicode="&#x401;" horiz-adv-x="989" d="M180 0v1439h761l-1 -17h-674v-674h467v-17h-467v-714h688v-17h-774zM328 1606q0 29 20 49t49 20q30 0 49.5 -20t19.5 -49t-19.5 -48t-49.5 -19q-29 0 -49 19t-20 48zM653 1606q0 29 20 49t49 20q30 0 49.5 -20t19.5 -49t-19.5 -48t-49.5 -19q-29 0 -49 19t-20 48z" />
<glyph unicode="&#x402;" horiz-adv-x="1368" d="M12 1422l1 17h1012v-17h-462v-607q74 75 166 115t192 40q99 0 185 -57t139 -172t53 -280q0 -125 -49 -235t-128.5 -193t-173.5 -137l-12 18q96 80 182 212.5t86 306.5q0 271 -94 386t-267 115q-73 0 -143.5 -38.5t-135.5 -103.5v-792h-86v1422h-465z" />
<glyph unicode="&#x403;" horiz-adv-x="924" d="M180 0v1439h742v-17h-656v-1422h-86zM545 1527l138 219l127 -9l-246 -216z" />
<glyph unicode="&#x404;" horiz-adv-x="1297" d="M90 707q0 219 90 391t247.5 268t354.5 96q77 0 154.5 -21.5t140 -53.5t101.5 -65l-9 -14q-88 70 -183.5 102.5t-208.5 32.5q-182 0 -315 -92.5t-203.5 -254t-73.5 -365.5l632 -1v-17l-632 1q0 -214 71 -377.5t199 -253t296 -89.5q151 0 272 63t193 175l16 -6 q-164 -250 -502 -250q-182 0 -327.5 87.5t-229 253t-83.5 390.5z" />
<glyph unicode="&#x405;" horiz-adv-x="1025" d="M35 121l9 15q84 -57 212 -100t232 -43q122 0 210 40t134.5 112.5t46.5 168.5q0 85 -49.5 155t-126.5 123.5t-185 108.5q-185 94 -296.5 196t-111.5 228q0 101 49 177t143 118t225 42q117 0 215.5 -34t191.5 -97l-8 -16q-106 68 -200 99t-217 31q-88 0 -163.5 -40.5 t-119.5 -108.5t-44 -146q0 -103 99 -192.5t281 -180.5q186 -92 289 -194.5t103 -238.5q0 -114 -59 -197t-165 -127t-244 -44q-111 0 -232.5 43t-218.5 102z" />
<glyph unicode="&#x406;" horiz-adv-x="446" d="M180 0v1439h86v-1439h-86z" />
<glyph unicode="&#x407;" horiz-adv-x="446" d="M-13 1743q0 29 20 49t49 20q30 0 49.5 -20t19.5 -49t-19.5 -48t-49.5 -19q-29 0 -49 19t-20 48zM180 0v1439h86v-1439h-86zM312 1743q0 29 20 49t49 20q30 0 49.5 -20t19.5 -49t-19.5 -48t-49.5 -19q-29 0 -49 19t-20 48z" />
<glyph unicode="&#x408;" horiz-adv-x="809" d="M16 69l8 16q74 -52 138.5 -72t145.5 -20q107 0 158 85t51 260v1101h86v-1146q0 -95 -38 -167t-108 -111t-162 -39q-80 0 -148.5 23t-130.5 70z" />
<glyph unicode="&#x409;" horiz-adv-x="2076" d="M17 46l5 17q100 -70 199 -70q130 0 191.5 193.5t76 478.5t15.5 757v17h822v-686h161q150 0 270 -38.5t191 -120.5t71 -207q0 -196 -147 -291.5t-422 -95.5h-210v1422h-719q-1 -502 -16.5 -787.5t-81 -472t-206.5 -186.5q-49 0 -101.5 18.5t-98.5 51.5zM1326 17h154 q234 0 339 94.5t105 275.5q0 171 -101 260t-330 89h-167v-719z" />
<glyph unicode="&#x40a;" horiz-adv-x="1964" d="M180 0v1439h86v-695h799v695h86v-686h224q150 0 270 -38.5t191 -120.5t71 -207q0 -196 -147 -291.5t-422 -95.5h-273v728h-799v-728h-86zM1151 17h217q234 0 339 94.5t105 275.5q0 171 -101 260t-330 89h-230v-719z" />
<glyph unicode="&#x40b;" horiz-adv-x="1432" d="M12 1422l1 17h1012v-17h-462v-633q97 97 196 139.5t201 42.5q94 0 166 -39t111.5 -109t39.5 -160v-663h-86v640q0 92 -31 163t-87.5 111t-130.5 40q-94 0 -193 -49t-186 -141v-764h-86v1422h-465z" />
<glyph unicode="&#x40c;" horiz-adv-x="1023" d="M180 0v1439h86v-1439h-86zM351 760l522 679h22l-481 -623l600 -816h-107zM503 1527l138 219l127 -9l-246 -216z" />
<glyph unicode="&#x40d;" horiz-adv-x="1313" d="M180 0v1439h86v-1168l781 979v189h86v-1439h-86v1222l-781 -979v-242zM414 1759l127 9l138 -219l-19 -6z" />
<glyph unicode="&#x40e;" horiz-adv-x="1096" d="M10 1439h100l483 -830l473 830h20l-596 -1047l-29 -52q-62 -110 -108.5 -183.5t-101 -126.5t-106.5 -53l6 18q40 0 86.5 45.5t80.5 96t80 126.5l146 259zM307 1750l15 5q12 -93 72 -131.5t170 -38.5q112 0 173 38.5t73 131.5l14 -5q-2 -110 -67 -173.5t-193 -63.5 q-125 0 -190 64t-67 173z" />
<glyph unicode="&#x40f;" horiz-adv-x="1333" d="M180 0v1439h86v-1422h801v1422h86v-1439h-444l-31 -313h-20l-31 313h-447z" />
<glyph unicode="&#x410;" horiz-adv-x="1131" d="M10 0l542 1439h27l542 -1439h-92l-171 455h-659l-171 -455h-18zM205 471h647l-323 861z" />
<glyph unicode="&#x411;" horiz-adv-x="1105" d="M180 0v1439h743v-17h-657v-668h264q166 0 278.5 -45.5t168 -128t55.5 -193.5q0 -188 -112.5 -287.5t-346.5 -99.5h-393zM266 17h297q193 0 283.5 98.5t90.5 271.5q0 170 -104.5 260t-296.5 90h-270v-720z" />
<glyph unicode="&#x412;" horiz-adv-x="1105" d="M180 0v1439h372q129 0 222 -40.5t142 -116.5t49 -181q0 -88 -42.5 -161.5t-120.5 -123.5t-181 -69q128 -8 220.5 -53.5t141.5 -123.5t49 -183q0 -188 -112.5 -287.5t-346.5 -99.5h-393zM266 17h297q193 0 283.5 98.5t90.5 271.5q0 170 -103 260t-291 90h-277v-720z M266 754h281q105 0 178 45t109.5 121t36.5 168q0 165 -87.5 249.5t-287.5 84.5h-230v-668z" />
<glyph unicode="&#x413;" horiz-adv-x="924" d="M180 0v1439h742v-17h-656v-1422h-86z" />
<glyph unicode="&#x414;" horiz-adv-x="1542" d="M17 17h205q128 139 193.5 290.5t91 371.5t25.5 588q0 112 -1 172h785v-1422h209v-330h-21l-65 313h-1336l-65 -313h-21v330zM247 17h983v1405h-682v-43v-161q0 -314 -17 -511.5t-82 -373t-202 -316.5z" />
<glyph unicode="&#x415;" horiz-adv-x="989" d="M180 0v1439h761l-1 -17h-674v-674h467v-17h-467v-714h688v-17h-774z" />
<glyph unicode="&#x416;" horiz-adv-x="1872" d="M39 0l600 816l-481 623h22l522 -679l-556 -760h-107zM894 0v1439h84v-1439h-84zM1170 760l522 679h22l-481 -623l600 -816h-107z" />
<glyph unicode="&#x417;" horiz-adv-x="1103" d="M100 164l14 10q70 -85 185.5 -133t240.5 -48q119 0 201.5 47.5t123 127.5t40.5 179q0 134 -59.5 227t-165 139t-241.5 42v19q140 0 234.5 46.5t141 125t46.5 176.5q0 88 -33 161.5t-97 117.5t-153 44q-272 0 -401 -187l-13 10q53 82 158.5 138t255.5 56q114 0 199.5 -42 t132 -117t46.5 -171q0 -99 -63.5 -179.5t-164 -129.5t-207.5 -58q121 -1 231 -45t179 -132t69 -215q0 -115 -62.5 -205.5t-170.5 -141t-238 -50.5q-93 0 -181 28.5t-153.5 72.5t-94.5 87z" />
<glyph unicode="&#x418;" horiz-adv-x="1313" d="M180 0v1439h86v-1168l781 979v189h86v-1439h-86v1222l-781 -979v-242z" />
<glyph unicode="&#x419;" horiz-adv-x="1313" d="M180 0v1439h86v-1168l781 979v189h86v-1439h-86v1222l-781 -979v-242zM396 1772l15 5q12 -93 72 -131.5t170 -38.5q112 0 173 38.5t73 131.5l14 -5q-2 -110 -67 -173.5t-193 -63.5q-125 0 -190 64t-67 173z" />
<glyph unicode="&#x41a;" horiz-adv-x="1023" d="M180 0v1439h86v-1439h-86zM351 760l522 679h22l-481 -623l600 -816h-107z" />
<glyph unicode="&#x41b;" horiz-adv-x="1506" d="M17 46l5 17q100 -70 199 -70q130 0 191.5 193.5t76 478.5t15.5 757v17h822v-1439h-86v1422h-719q-1 -502 -16.5 -787.5t-81 -472t-206.5 -186.5q-49 0 -101.5 18.5t-98.5 51.5z" />
<glyph unicode="&#x41c;" horiz-adv-x="1579" d="M180 0v1439h79l518 -1118l38 -75l49 112l457 1081h78v-1439h-86v1380l-525 -1235h-22l-569 1220v-1365h-17z" />
<glyph unicode="&#x41d;" horiz-adv-x="1331" d="M180 0v1439h86v-695h799v695h86v-1439h-86v728h-799v-728h-86z" />
<glyph unicode="&#x41e;" horiz-adv-x="1483" d="M90 704q0 217 80.5 389.5t228 270.5t342.5 98q196 0 343.5 -95t228 -264t80.5 -386q0 -215 -80.5 -383.5t-228 -263t-343.5 -94.5q-195 0 -342.5 93.5t-228 259t-80.5 375.5zM185 751q0 -134 43 -306.5t169 -312t354 -139.5q168 0 291.5 86.5t189.5 243t66 360.5 q0 135 -43.5 308.5t-170 313.5t-353.5 140q-164 0 -288 -87.5t-191 -245t-67 -361.5z" />
<glyph unicode="&#x41f;" horiz-adv-x="1333" d="M180 0v1439h973v-1439h-86v1422h-801v-1422h-86z" />
<glyph unicode="&#x420;" horiz-adv-x="1052" d="M180 0v1439h356q157 0 259.5 -53t151 -145t48.5 -213q0 -137 -65.5 -232.5t-177.5 -143t-251 -47.5h-51v17h62q197 0 292 107.5t95 298.5q0 127 -55 216t-147.5 133.5t-203.5 44.5h-227v-1422h-86z" />
<glyph unicode="&#x421;" horiz-adv-x="1297" d="M90 707q0 219 90 391t247.5 268t354.5 96q77 0 154.5 -21.5t140 -53.5t101.5 -65l-9 -14q-88 70 -183.5 102.5t-208.5 32.5q-184 0 -318 -94.5t-204 -259.5t-70 -373q0 -215 70.5 -378.5t199 -253.5t296.5 -90q151 0 272 63t193 175l16 -6q-164 -250 -502 -250 q-182 0 -327.5 87.5t-229 253t-83.5 390.5z" />
<glyph unicode="&#x422;" horiz-adv-x="1037" d="M12 1422l1 17h1012v-17h-462v-1422h-86v1422h-465z" />
<glyph unicode="&#x423;" horiz-adv-x="1096" d="M10 1439h100l483 -830l473 830h20l-596 -1047l-29 -52q-62 -110 -108.5 -183.5t-101 -126.5t-106.5 -53l6 18q40 0 86.5 45.5t80.5 96t80 126.5l146 259z" />
<glyph unicode="&#x424;" horiz-adv-x="1685" d="M90 718q0 157 80.5 280.5t240.5 198t389 84.5v158h86v-158q229 -10 388.5 -84.5t240 -198t80.5 -280.5q0 -156 -80.5 -279t-240 -197.5t-388.5 -85.5v-155l-86 -1v157q-229 10 -389 84.5t-240.5 197.5t-80.5 279zM185 718q0 -252 142.5 -390.5t472.5 -153.5v1090 q-330 -16 -472.5 -154.5t-142.5 -391.5zM886 174q328 16 471 154.5t143 389.5t-143 390t-471 156v-1090z" />
<glyph unicode="&#x425;" horiz-adv-x="1129" d="M39 0l488 721l-459 718h104l413 -647l482 647h21l-494 -662l496 -777h-102l-450 705l-63 -92l-415 -613h-21z" />
<glyph unicode="&#x426;" horiz-adv-x="1314" d="M180 0v1439h86v-1422h801v1422h86v-1422h144v-330h-21l-65 313h-1031z" />
<glyph unicode="&#x427;" horiz-adv-x="1220" d="M145 886v553h86v-536q0 -121 33.5 -192t112 -104t216.5 -33q111 0 205 39t156 103v723h86v-1439h-86v693q-68 -77 -180.5 -121.5t-249.5 -44.5q-187 0 -283 86.5t-96 272.5z" />
<glyph unicode="&#x428;" horiz-adv-x="1845" d="M180 0v1439h86v-1422h607v1422h86v-1422h620v1422h86v-1439h-1485z" />
<glyph unicode="&#x429;" horiz-adv-x="1778" d="M180 0v1439h86v-1422h607v1422h86v-1422h620v1422h86v-1422h96v-330h-21l-65 313h-1495z" />
<glyph unicode="&#x42a;" horiz-adv-x="1416" d="M12 1401l1 38h490v-686h324q150 0 270 -38.5t191 -120.5t71 -207q0 -196 -147 -291.5t-422 -95.5h-373v1401h-405zM503 17h317q234 0 339 94.5t105 275.5q0 171 -101 260t-330 89h-330v-719z" />
<glyph unicode="&#x42b;" horiz-adv-x="1625" d="M180 0v1439h86v-686h324q150 0 270 -38.5t191 -120.5t71 -207q0 -196 -147 -291.5t-422 -95.5h-373zM266 17h317q234 0 339 94.5t105 275.5q0 171 -101 260t-330 89h-330v-719zM1359 0v1439h86v-1439h-86z" />
<glyph unicode="&#x42c;" horiz-adv-x="1179" d="M180 0v1439h86v-686h324q150 0 270 -38.5t191 -120.5t71 -207q0 -196 -147 -291.5t-422 -95.5h-373zM266 17h317q234 0 339 94.5t105 275.5q0 171 -101 260t-330 89h-330v-719z" />
<glyph unicode="&#x42d;" horiz-adv-x="1297" d="M65 226l16 6q72 -112 193 -175t272 -63q168 0 296 89.5t199 253t71 377.5l-632 -1v17l632 1q-3 204 -73.5 365.5t-203.5 254t-315 92.5q-113 0 -208.5 -32.5t-183.5 -102.5l-9 14q39 33 101.5 65t140 53.5t154.5 21.5q197 0 354.5 -96t247.5 -268t90 -391 q0 -225 -83.5 -390.5t-229 -253t-327.5 -87.5q-338 0 -502 250z" />
<glyph unicode="&#x42e;" horiz-adv-x="2043" d="M180 0v1439h86v-703h324q4 210 92.5 375.5t242 258t346.5 92.5q197 0 352 -95.5t242.5 -265t87.5 -384.5q0 -213 -87.5 -382t-242.5 -264t-352 -95q-192 0 -345.5 97t-242.5 267t-93 379h-324v-718zM685 717q0 -223 65 -385t196 -250.5t325 -88.5q193 0 324.5 88 t197 250.5t65.5 385.5q0 224 -65.5 387.5t-197 252t-324.5 88.5q-194 0 -325 -88.5t-196 -252t-65 -387.5z" />
<glyph unicode="&#x42f;" horiz-adv-x="1134" d="M55 0l385 704q-300 69 -300 379q0 166 101 261t303 95h410v-1439h-86v1422h-283q-120 0 -199 -45t-116 -122.5t-37 -177.5q0 -185 91.5 -281t303.5 -96h123l-1 -17h-105q-62 0 -118 6l-374 -689h-98z" />
<glyph unicode="&#x430;" horiz-adv-x="919" d="M66 198q0 107 86 184t228 118.5t310 48.5v124q0 157 -57.5 243.5t-189.5 86.5q-88 0 -170.5 -35t-144.5 -88l-11 14q82 61 156 93.5t171 32.5q173 0 251.5 -91t78.5 -238v-691h-27l-39 141h-2q-84 -83 -180.5 -124t-210.5 -41q-65 0 -122 26.5t-92 77t-35 118.5zM156 225 q0 -63 28 -109t77.5 -70.5t110.5 -24.5q89 0 173.5 36.5t144.5 92.5v382q-233 -11 -383.5 -86t-150.5 -221z" />
<glyph unicode="&#x431;" horiz-adv-x="1053" d="M70 543q0 170 51.5 345t163 323t281.5 229q49 23 95 40t159 46l6 -16l-36 -10q-72 -19 -112 -32.5t-101 -41.5q-159 -73 -253 -235t-134 -374q40 55 110 101t150 72.5t151 26.5q105 0 192.5 -63t138.5 -175.5t51 -254.5q0 -159 -57.5 -284t-161.5 -194.5t-238 -69.5 q-139 0 -242 70.5t-158.5 198.5t-55.5 298zM161 524q0 -139 47 -261t130.5 -195.5t188.5 -73.5q98 0 182 64.5t134 178t50 253.5q0 142 -37.5 251.5t-112 171.5t-181.5 62q-70 0 -145 -28t-137.5 -76t-96.5 -107q-22 -118 -22 -240z" />
<glyph unicode="&#x432;" horiz-adv-x="911" d="M155 0v994h310q113 0 188.5 -31.5t111 -84t35.5 -118.5q0 -89 -58.5 -154.5t-163.5 -86.5q126 -15 194.5 -83.5t68.5 -169.5q0 -266 -411 -266h-275zM239 17h206q165 0 234.5 64t69.5 187q0 118 -66.5 178t-228.5 60h-215v-489zM239 523h208q143 0 201.5 60.5t58.5 167.5 q0 112 -62.5 169t-213.5 57h-192v-454z" />
<glyph unicode="&#x433;" horiz-adv-x="758" d="M155 0v994h574v-17h-490v-977h-84z" />
<glyph unicode="&#x434;" horiz-adv-x="1203" d="M73 17h118q128 62 189 209.5t75 310.5t14 389v68h521v-977h140v-250h-30l-54 233h-889l-54 -233h-30v250zM228 17h678v966h-420v-79q0 -208 -15 -370t-71.5 -306t-171.5 -211z" />
<glyph unicode="&#x435;" horiz-adv-x="987" d="M70 468q0 161 59.5 286t164.5 194t235 69q121 0 208.5 -57t133.5 -157.5t46 -228.5h-755q-3 -30 -3 -59q0 -141 42.5 -253.5t129.5 -178.5t214 -66q89 0 155.5 27.5t111 68t91.5 99.5l13 -7q-68 -106 -172 -167.5t-242 -61.5q-125 0 -223 62.5t-153.5 174t-55.5 255.5z M164 591h658q0 115 -34.5 207t-101.5 145t-163 53q-92 0 -169 -55.5t-126.5 -148t-63.5 -201.5z" />
<glyph unicode="&#x436;" horiz-adv-x="1384" d="M40 0l468 556l-372 438h23l401 -473h93v473h84v-473h87l401 473h23l-372 -438l468 -556h-105l-421 501l-81 2v-503h-84v503l-87 -2l-421 -501h-105z" />
<glyph unicode="&#x437;" horiz-adv-x="734" d="M35 71l7 11q75 -47 148 -66.5t163 -19.5q108 0 163.5 69t55.5 174q0 82 -42 143.5t-111.5 94t-148.5 34.5v13q143 22 207 87.5t64 162.5q0 96 -41 159.5t-121 63.5q-71 0 -136 -23t-131 -67l-8 10q65 44 132.5 68t143.5 24q79 0 136 -29t87 -80.5t30 -118.5 q0 -94 -66 -157t-187 -86q130 -17 207 -92t77 -188q0 -81 -38.5 -143.5t-110.5 -97t-169 -34.5q-95 0 -170.5 24t-140.5 64z" />
<glyph unicode="&#x438;" horiz-adv-x="1088" d="M155 0v994h84v-769l610 635v134h84v-994h-84v835l-610 -635v-200h-84z" />
<glyph unicode="&#x439;" horiz-adv-x="1088" d="M155 0v994h84v-769l610 635v134h84v-994h-84v835l-610 -635v-200h-84zM284 1305l15 5q12 -93 72 -131.5t170 -38.5q112 0 173 38.5t73 131.5l14 -5q-2 -110 -67 -173.5t-193 -63.5q-125 0 -190 64t-67 173z" />
<glyph unicode="&#x43a;" d="M155 0v994h84v-473h149l401 473h23l-372 -438l468 -556h-105l-421 501l-143 3v-504h-84z" />
<glyph unicode="&#x43b;" horiz-adv-x="1143" d="M31 47l12 12q37 -32 78 -45.5t73 -13.5q72 0 117 118.5t63.5 285t19.5 323.5l1 267h593v-994h-84v977h-491l-2 -252q-1 -128 -14.5 -289.5t-62.5 -307t-144 -145.5q-33 0 -75.5 14.5t-83.5 49.5z" />
<glyph unicode="&#x43c;" horiz-adv-x="1216" d="M155 0v994h63l373 -769l22 -46l24 43l370 772h54v-994h-84v892l-384 -801h-30l-391 804v-895h-17z" />
<glyph unicode="&#x43d;" horiz-adv-x="1080" d="M155 0v994h84v-498h602v498h84v-994h-84v479h-602v-479h-84z" />
<glyph unicode="&#x43e;" horiz-adv-x="1106" d="M70 498q0 146 63 264.5t173.5 186.5t246.5 68q141 0 251 -67.5t171 -186t61 -265.5t-63 -266.5t-173.5 -187.5t-246.5 -68q-141 0 -250.5 67t-171 186t-61.5 269zM162 504q0 -93 40 -213t130 -209t229 -89q64 0 152.5 40.5t159.5 152t71 306.5q0 92 -41.5 211.5 t-131.5 208t-227 88.5q-64 0 -152 -40.5t-159 -151.5t-71 -304z" />
<glyph unicode="&#x43f;" horiz-adv-x="1080" d="M155 0v994h770v-994h-84v977h-602v-977h-84z" />
<glyph unicode="&#x440;" horiz-adv-x="1076" d="M155 -416v1410h27l39 -141h6q68 81 160.5 122.5t187.5 41.5q132 0 229.5 -60.5t149.5 -171.5t52 -260q0 -153 -57 -277.5t-167.5 -198t-263.5 -73.5q-67 0 -143.5 22.5t-135.5 60.5v-475h-84zM239 161q43 -81 116.5 -124.5t151.5 -43.5q116 0 207.5 60t143.5 173.5 t52 268.5t-45.5 265.5t-132 168t-208.5 57.5q-75 0 -155.5 -45t-129.5 -107v-673z" />
<glyph unicode="&#x441;" d="M70 467q0 166 64.5 290.5t179.5 192t263 67.5q91 0 176.5 -37.5t137.5 -103.5l-14 -10q-48 58 -132 96t-157 38q-221 0 -324.5 -127t-103.5 -350q0 -240 106 -376t313 -136q201 0 332 181l12 -12q-61 -94 -163.5 -149t-232.5 -55q-129 0 -233 61.5t-164 173t-60 256.5z " />
<glyph unicode="&#x442;" horiz-adv-x="891" d="M63 977v17h765v-17h-340v-977h-84v977h-341z" />
<glyph unicode="&#x443;" horiz-adv-x="890" d="M61 994h91l283 -765l40 -115l48 129l288 751h18l-378 -994l-80 -193q-49 -118 -108.5 -190.5t-130.5 -111.5l-10 15q64 33 122 100t97 160l89 212l-3 8z" />
<glyph unicode="&#x444;" horiz-adv-x="1173" d="M70 498q0 165 61 280.5t168 175.5t245 66v477h84v-477q139 -6 246.5 -66t168 -175.5t60.5 -280.5q0 -167 -60.5 -282t-167.5 -174.5t-247 -64.5v-393h-84v393q-139 6 -245.5 65.5t-167.5 174.5t-61 281zM162 498q0 -241 92.5 -367.5t289.5 -136.5v1009 q-196 -10 -289 -137.5t-93 -367.5zM628 -5q197 10 290 135.5t93 367.5q0 240 -93.5 367.5t-289.5 137.5v-1008z" />
<glyph unicode="&#x445;" horiz-adv-x="872" d="M40 994h114l277 -413l20 -31l71 99l259 344l23 1l-344 -460l372 -534h-104l-293 427l-29 46l-338 -473h-21l348 488z" />
<glyph unicode="&#x446;" horiz-adv-x="1100" d="M155 0v994h84v-977h602v977h84v-977h102v-250h-30l-54 233h-788z" />
<glyph unicode="&#x447;" horiz-adv-x="976" d="M109 580v414h84v-391q0 -78 30 -147.5t89 -112t143 -42.5q71 0 144 49t138 122v522h84v-994h-84v449q-73 -88 -160 -134t-181 -46q-80 0 -145.5 39t-103.5 110t-38 162z" />
<glyph unicode="&#x448;" horiz-adv-x="1574" d="M145 0v994h84v-977h508v977h84v-977h514v977h84v-994h-1274z" />
<glyph unicode="&#x449;" horiz-adv-x="1604" d="M155 0v994h84v-977h508v977h84v-977h514v977h84v-977h102v-250h-30l-54 233h-1292z" />
<glyph unicode="&#x44a;" horiz-adv-x="973" d="M63 977v17h317v-478h165q180 0 284.5 -57t104.5 -193q0 -266 -411 -266h-227v977h-233zM380 17h158q160 0 232 65.5t72 185.5q0 116 -68 173.5t-227 57.5h-167v-482z" />
<glyph unicode="&#x44b;" horiz-adv-x="1226" d="M155 0v994h84v-478h165q180 0 284.5 -57t104.5 -193q0 -266 -411 -266h-227zM239 17h158q160 0 232 65.5t72 185.5q0 116 -68 173.5t-227 57.5h-167v-482zM987 0v994h84v-994h-84z" />
<glyph unicode="&#x44c;" horiz-adv-x="832" d="M155 0v994h84v-478h165q180 0 284.5 -57t104.5 -193q0 -266 -411 -266h-227zM239 17h158q160 0 232 65.5t72 185.5q0 116 -68 173.5t-227 57.5h-167v-482z" />
<glyph unicode="&#x44d;" d="M25 180l12 12q131 -181 332 -181q205 0 311 132.5t108 368.5h-455v18h455q-2 220 -105.5 345t-322.5 125q-73 0 -157 -38t-132 -96l-14 10q52 66 137.5 103.5t176.5 37.5q148 0 263 -67.5t179.5 -192t64.5 -290.5q0 -145 -60 -256.5t-164 -173t-233 -61.5 q-130 0 -232.5 55t-163.5 149z" />
<glyph unicode="&#x44e;" horiz-adv-x="1549" d="M155 0v994h84v-498h274v2q0 146 63 264.5t173.5 186.5t246.5 68q141 0 251 -67.5t171 -186t61 -265.5t-63 -266.5t-173.5 -187.5t-246.5 -68q-138 0 -246 64t-170.5 178.5t-66.5 260.5h-274v-479h-84zM605 524q0 -94 40 -219t130 -218.5t229 -93.5q64 0 152.5 39.5 t159.5 146.5t71 293q0 93 -41.5 217.5t-131.5 217.5t-227 93q-63 0 -151.5 -39.5t-159.5 -146t-71 -290.5z" />
<glyph unicode="&#x44f;" horiz-adv-x="931" d="M68 0l272 462q18 2 27 5t23 10q-129 22 -196.5 86.5t-67.5 183.5q0 74 38.5 130t113 86.5t180.5 30.5h318v-994h-85l1 976h-198q-148 0 -211.5 -62t-63.5 -172q0 -140 91.5 -200.5t266.5 -60.5h15l-3 -18h-15q-85 0 -157 9l-245 -472h-104z" />
<glyph unicode="&#x450;" horiz-adv-x="987" d="M70 468q0 161 59.5 286t164.5 194t235 69q121 0 208.5 -57t133.5 -157.5t46 -228.5h-755q-3 -30 -3 -59q0 -141 42.5 -253.5t129.5 -178.5t214 -66q89 0 155.5 27.5t111 68t91.5 99.5l13 -7q-68 -106 -172 -167.5t-242 -61.5q-125 0 -223 62.5t-153.5 174t-55.5 255.5z M164 591h658q0 115 -34.5 207t-101.5 145t-163 53q-92 0 -169 -55.5t-126.5 -148t-63.5 -201.5zM300 1448l116 11l127 -274l-18 -7z" />
<glyph unicode="&#x451;" horiz-adv-x="987" d="M70 468q0 161 59.5 286t164.5 194t235 69q121 0 208.5 -57t133.5 -157.5t46 -228.5h-755q-3 -30 -3 -59q0 -141 42.5 -253.5t129.5 -178.5t214 -66q89 0 155.5 27.5t111 68t91.5 99.5l13 -7q-68 -106 -172 -167.5t-242 -61.5q-125 0 -223 62.5t-153.5 174t-55.5 255.5z M164 591h658q0 115 -34.5 207t-101.5 145t-163 53q-92 0 -169 -55.5t-126.5 -148t-63.5 -201.5zM284 1298q0 29 20 49t49 20q30 0 49.5 -20t19.5 -49t-19.5 -48t-49.5 -19q-29 0 -49 19t-20 48zM609 1298q0 29 20 49t49 20q30 0 49.5 -20t19.5 -49t-19.5 -48t-49.5 -19 q-29 0 -49 19t-20 48z" />
<glyph unicode="&#x452;" horiz-adv-x="1131" d="M76 1195v17h131v285h83v-285h236v-17h-236v-336q76 75 183.5 119.5t216.5 44.5q86 0 152.5 -34t105 -103.5t38.5 -172.5v-629q0 -150 -14 -241t-76 -162t-196 -96l-6 16q108 58 158 140t50 193v764q0 123 -63.5 198.5t-206.5 75.5q-51 0 -115.5 -17.5t-125 -49 t-101.5 -71.5l1 -834h-84v1195h-131z" />
<glyph unicode="&#x453;" horiz-adv-x="758" d="M155 0v994h574v-17h-490v-977h-84zM373 1185l127 274l116 -11l-225 -270z" />
<glyph unicode="&#x454;" d="M70 467q0 166 64.5 290.5t179.5 192t263 67.5q91 0 176.5 -37.5t137.5 -103.5l-14 -10q-48 58 -132 96t-157 38q-219 0 -322.5 -125t-105.5 -345h455v-18h-455q2 -236 108 -368.5t311 -132.5q201 0 332 181l12 -12q-61 -94 -163.5 -149t-232.5 -55q-129 0 -233 61.5 t-164 173t-60 256.5z" />
<glyph unicode="&#x455;" horiz-adv-x="825" d="M81 99l10 14q84 -63 163.5 -91.5t164.5 -28.5q81 0 133.5 31t76.5 79.5t24 102.5q0 90 -57 153.5t-171 118.5l-22 11q-84 42 -144.5 80.5t-101.5 91t-41 115.5q0 77 40 132t113 84t169 29q146 0 270 -97l-8 -16q-49 42 -117.5 69t-155.5 27q-75 0 -128 -30.5t-79.5 -77.5 t-26.5 -98q0 -49 33 -89t84.5 -72.5t134.5 -74.5l24 -12q125 -62 193 -135.5t68 -175.5q0 -71 -35.5 -130.5t-107.5 -96t-176 -36.5q-74 0 -158.5 30.5t-171.5 92.5z" />
<glyph unicode="&#x456;" horiz-adv-x="394" d="M135 1303q0 26 17.5 43.5t43.5 17.5t44 -17.5t18 -43.5t-18 -43t-44 -17t-43.5 17t-17.5 43zM155 0v994h84v-994h-84z" />
<glyph unicode="&#x457;" horiz-adv-x="394" d="M-39 1298q0 29 20 49t49 20q30 0 49.5 -20t19.5 -49t-19.5 -48t-49.5 -19q-29 0 -49 19t-20 48zM155 0v994h84v-994h-84zM286 1298q0 29 20 49t49 20q30 0 49.5 -20t19.5 -49t-19.5 -48t-49.5 -19q-29 0 -49 19t-20 48z" />
<glyph unicode="&#x458;" horiz-adv-x="392" d="M-57 -405q35 0 78 20.5t78.5 49.5t49.5 51q0 37 2 109t2 109v1060h84v-910q0 -144 -16.5 -239.5t-79.5 -169t-193 -99.5zM133 1303q0 26 17.5 43.5t43.5 17.5t44 -17.5t18 -43.5t-18 -43t-44 -17t-43.5 17t-17.5 43z" />
<glyph unicode="&#x459;" horiz-adv-x="1581" d="M31 47l12 12q37 -32 78 -45.5t73 -13.5q72 0 117 118.5t63.5 285t19.5 323.5l1 267h593v-478h165q180 0 284.5 -57t104.5 -193q0 -266 -411 -266h-227v977h-491l-2 -252q-1 -128 -14.5 -289.5t-62.5 -307t-144 -145.5q-33 0 -75.5 14.5t-83.5 49.5zM988 17h158 q160 0 232 65.5t72 185.5q0 116 -68 173.5t-227 57.5h-167v-482z" />
<glyph unicode="&#x45a;" horiz-adv-x="1518" d="M155 0v994h84v-498h602v498h84v-478h165q180 0 284.5 -57t104.5 -193q0 -266 -411 -266h-227v479h-602v-479h-84zM925 17h158q160 0 232 65.5t72 185.5q0 116 -68 173.5t-227 57.5h-167v-482z" />
<glyph unicode="&#x45b;" horiz-adv-x="1080" d="M76 1195v17h79v285h84v-285h287v-17h-287v-336q86 76 189.5 117.5t209.5 41.5q140 0 218.5 -82t78.5 -228v-708h-84v685q0 135 -66 208.5t-190 73.5q-91 0 -186.5 -34.5t-169.5 -95.5v-837h-84v1195h-79z" />
<glyph unicode="&#x45c;" d="M155 0v994h84v-473h149l401 473h23l-372 -438l468 -556h-105l-421 501l-143 3v-504h-84zM407 1185l127 274l116 -11l-225 -270z" />
<glyph unicode="&#x45d;" horiz-adv-x="1088" d="M155 0v994h84v-769l610 635v134h84v-994h-84v835l-610 -635v-200h-84zM323 1448l116 11l127 -274l-18 -7z" />
<glyph unicode="&#x45e;" horiz-adv-x="890" d="M61 994h91l283 -765l40 -115l48 129l288 751h18l-378 -994l-80 -193q-49 -118 -108.5 -190.5t-130.5 -111.5l-10 15q64 33 122 100t97 160l89 212l-3 8zM198 1305l15 5q12 -93 72 -131.5t170 -38.5q112 0 173 38.5t73 131.5l14 -5q-2 -110 -67 -173.5t-193 -63.5 q-125 0 -190 64t-67 173z" />
<glyph unicode="&#x45f;" horiz-adv-x="1080" d="M155 0v994h84v-977h602v977h84v-994h-342l-21 -231h-30l-32 231h-345z" />
<glyph unicode="&#x474;" horiz-adv-x="1141" d="M10 1439l91 2l467 -1288l24 -64l44 119l383 1053q23 62 40.5 98t28.5 51.5t30 36.5l13 -15q-26 -26 -51 -72t-60 -143l-442 -1217h-46z" />
<glyph unicode="&#x490;" horiz-adv-x="924" d="M180 0v1439h659l65 313h21v-330h-659v-1422h-86z" />
<glyph unicode="&#x491;" horiz-adv-x="760" d="M155 0v994h503l46 178h27v-195h-492v-977h-84z" />
<glyph unicode="&#x2000;" horiz-adv-x="906" />
<glyph unicode="&#x2001;" horiz-adv-x="1812" />
<glyph unicode="&#x2002;" horiz-adv-x="906" />
<glyph unicode="&#x2003;" horiz-adv-x="1812" />
<glyph unicode="&#x2004;" horiz-adv-x="604" />
<glyph unicode="&#x2005;" horiz-adv-x="453" />
<glyph unicode="&#x2006;" horiz-adv-x="302" />
<glyph unicode="&#x2007;" horiz-adv-x="302" />
<glyph unicode="&#x2008;" horiz-adv-x="226" />
<glyph unicode="&#x2009;" horiz-adv-x="362" />
<glyph unicode="&#x200a;" horiz-adv-x="100" />
<glyph unicode="&#x2010;" horiz-adv-x="697" d="M102 547v17h494v-17h-494z" />
<glyph unicode="&#x2011;" horiz-adv-x="697" d="M102 547v17h494v-17h-494z" />
<glyph unicode="&#x2012;" horiz-adv-x="697" d="M102 547v17h494v-17h-494z" />
<glyph unicode="&#x2013;" horiz-adv-x="1076" d="M102 547v17h873v-17h-873z" />
<glyph unicode="&#x2014;" horiz-adv-x="1644" d="M102 547v17h1441v-17h-1441z" />
<glyph unicode="&#x2018;" horiz-adv-x="513" d="M158 1176q0 106 57 179.5t162 109.5l7 -15q-86 -32 -122 -87t-36 -130q0 -46 17 -92t54 -80l-67 -73q-30 25 -51 82.5t-21 105.5z" />
<glyph unicode="&#x2019;" horiz-adv-x="513" d="M129 1006q86 32 122 87t36 130q0 46 -17 92t-54 80l67 73q30 -25 51 -82.5t21 -105.5q0 -106 -57 -179.5t-162 -109.5z" />
<glyph unicode="&#x201a;" horiz-adv-x="513" d="M129 -301q86 32 122 87t36 130q0 46 -17 92t-54 80l67 73q30 -25 51 -82.5t21 -105.5q0 -106 -57 -179.5t-162 -109.5z" />
<glyph unicode="&#x201c;" horiz-adv-x="818" d="M158 1180q0 106 57 179.5t162 109.5l7 -15q-86 -32 -122 -87t-36 -130q0 -46 17 -92t54 -80l-67 -73q-30 25 -51 82.5t-21 105.5zM463 1180q0 106 57 179.5t162 109.5l7 -15q-86 -32 -122 -87t-36 -130q0 -46 17 -92t54 -80l-67 -73q-30 25 -51 82.5t-21 105.5z" />
<glyph unicode="&#x201d;" horiz-adv-x="818" d="M129 1000q86 32 122 87t36 130q0 46 -17 92t-54 80l67 73q30 -25 51 -82.5t21 -105.5q0 -106 -57 -179.5t-162 -109.5zM434 1000q86 32 122 87t36 130q0 46 -17 92t-54 80l67 73q30 -25 51 -82.5t21 -105.5q0 -106 -57 -179.5t-162 -109.5z" />
<glyph unicode="&#x201e;" horiz-adv-x="818" d="M129 -301q86 32 122 87t36 130q0 46 -17 92t-54 80l67 73q30 -25 51 -82.5t21 -105.5q0 -106 -57 -179.5t-162 -109.5zM434 -301q86 32 122 87t36 130q0 46 -17 92t-54 80l67 73q30 -25 51 -82.5t21 -105.5q0 -106 -57 -179.5t-162 -109.5z" />
<glyph unicode="&#x2022;" horiz-adv-x="414" d="M110 544q0 42 28 68.5t70 26.5q43 0 69.5 -26.5t26.5 -68.5t-26.5 -68t-69.5 -26q-42 0 -70 26.5t-28 67.5z" />
<glyph unicode="&#x2026;" horiz-adv-x="1077" d="M110 43q0 30 20 49t50 19q31 0 50 -19t19 -49t-19 -48.5t-50 -18.5q-30 0 -50 18.5t-20 48.5zM469 43q0 30 20 49t50 19q31 0 50 -19t19 -49t-19 -48.5t-50 -18.5q-30 0 -50 18.5t-20 48.5zM828 43q0 30 20 49t50 19q31 0 50 -19t19 -49t-19 -48.5t-50 -18.5 q-30 0 -50 18.5t-20 48.5z" />
<glyph unicode="&#x202f;" horiz-adv-x="362" />
<glyph unicode="&#x2039;" horiz-adv-x="533" d="M96 498v28l335 353l11 -10l-255 -356l255 -356l-11 -9z" />
<glyph unicode="&#x203a;" horiz-adv-x="533" d="M91 157l255 356l-255 356l11 10l335 -353v-28l-335 -350z" />
<glyph unicode="&#x205f;" horiz-adv-x="453" />
<glyph unicode="&#x20ac;" horiz-adv-x="1334" d="M-37 591v17h131q-4 64 -4 99q0 42 5 94h-132v17h133q22 190 116 336.5t242 227t328 80.5q77 0 154.5 -21.5t140 -53.5t101.5 -65l-9 -14q-88 70 -183.5 102.5t-208.5 32.5q-169 0 -296 -80t-201 -221t-90 -324h713v-17h-715q-3 -42 -3 -85q0 -50 5 -108h713v-17h-711 q19 -180 93.5 -315t194.5 -208.5t271 -73.5t272 63t193 175l16 -6q-164 -250 -502 -250q-166 0 -302.5 73t-223.5 211.5t-108 330.5h-133z" />
<glyph unicode="&#x2122;" horiz-adv-x="1313" d="M12 1432v7h431v-7h-198v-605h-36v605h-197zM614 827v612h33l221 -475l16 -32l21 47l195 460h33v-612h-36v586l-222 -524h-11l-243 519v-581h-7z" />
<glyph unicode="&#x25fc;" horiz-adv-x="995" d="M0 0v995h995v-995h-995z" />
</font>
</defs>
</svg>
