<?xml version="1.0" standalone="no"?>
<!DOCTYPE svg PUBLIC "-//W3C//DTD SVG 20010904//EN"
 "http://www.w3.org/TR/2001/REC-SVG-20010904/DTD/svg10.dtd">
<svg version="1.0" xmlns="http://www.w3.org/2000/svg"
 width="700.000000pt" height="700.000000pt" viewBox="0 0 700.000000 700.000000"
 preserveAspectRatio="xMidYMid meet">
<metadata>
Created by potrace 1.14, written by Peter Selinger 2001-2017
</metadata>
<g transform="translate(0.000000,700.000000) scale(0.100000,-0.100000)"
fill="#000000" stroke="none">
<path d="M2770 5329 c-398 -599 -725 -1089 -725 -1089 0 0 -182 130 -405 289
-223 159 -517 370 -655 468 -137 98 -255 182 -262 188 -6 5 -33 25 -60 43 -26
19 -183 130 -347 248 -165 117 -302 212 -304 210 -2 -2 1 -30 7 -62 6 -33 13
-74 16 -91 3 -18 7 -45 9 -60 3 -16 12 -68 20 -118 8 -49 17 -103 20 -120 7
-46 35 -217 41 -245 2 -14 11 -68 20 -120 8 -52 17 -106 19 -120 4 -22 28
-164 41 -240 20 -121 55 -331 58 -355 3 -16 21 -127 41 -245 20 -118 39 -226
41 -240 2 -14 29 -176 60 -360 31 -184 58 -351 61 -370 3 -19 7 -46 10 -60 2
-14 6 -36 9 -50 2 -14 11 -68 20 -120 9 -52 18 -106 20 -120 2 -14 13 -81 25
-150 23 -136 24 -145 40 -240 5 -36 12 -76 15 -90 4 -22 27 -162 42 -255 35
-217 66 -382 76 -395 23 -29 123 -123 187 -175 78 -63 244 -175 259 -175 6 0
11 -3 11 -7 0 -5 10 -13 23 -19 12 -5 60 -31 107 -55 206 -109 515 -224 790
-294 24 -6 192 -43 225 -50 90 -18 195 -36 230 -40 22 -3 51 -7 65 -10 29 -5
87 -12 270 -31 336 -34 881 -34 1230 1 151 15 161 16 260 30 14 2 45 7 70 10
37 6 236 42 330 61 14 3 77 18 140 35 447 116 836 292 1121 506 98 73 248 216
250 236 0 7 2 21 4 32 4 17 67 396 81 480 2 17 9 55 14 85 5 30 12 71 15 90 3
19 7 46 10 60 3 14 7 40 10 58 7 47 12 73 35 212 12 69 23 136 25 150 20 126
63 375 69 410 3 14 8 43 11 65 4 31 53 322 80 485 11 62 67 398 71 425 2 17 9
53 14 80 5 28 12 68 15 89 3 21 7 48 10 60 2 12 7 39 10 61 3 22 35 216 71
430 79 475 73 435 78 465 3 14 8 43 11 65 3 22 12 78 20 125 8 47 17 99 19
115 3 17 10 59 16 94 6 35 9 65 8 67 -2 2 -35 -19 -73 -46 -75 -53 -1497
-1069 -1530 -1094 -11 -8 -74 -53 -140 -100 -66 -46 -147 -104 -180 -129 -33
-24 -71 -51 -85 -60 l-25 -16 -720 1081 c-396 594 -724 1083 -730 1088 -6 5
-291 -414 -735 -1081z"/>
</g>
</svg>
